<svg width="31" height="16" viewBox="0 0 31 16" fill="none" xmlns="http://www.w3.org/2000/svg">
<rect width="31" height="16" fill="#0B1547"/>
<path d="M6.076 5.988H4.732C4.764 5.524 4.884 5.124 5.092 4.788C5.3 4.452 5.568 4.196 5.896 4.02C6.232 3.836 6.584 3.704 6.952 3.624C7.328 3.536 7.728 3.492 8.152 3.492C8.48 3.492 8.792 3.52 9.088 3.576C9.392 3.624 9.684 3.712 9.964 3.84C10.252 3.968 10.5 4.128 10.708 4.32C10.916 4.504 11.084 4.744 11.212 5.04C11.34 5.336 11.404 5.672 11.404 6.048C11.404 7.744 10.296 8.592 8.08 8.592C7.84 8.592 7.612 8.612 7.396 8.652C7.18 8.684 6.96 8.744 6.736 8.832C6.512 8.912 6.332 9.044 6.196 9.228C6.06 9.404 5.992 9.62 5.992 9.876V10.74H11.404V12H4.696V9.876C4.696 9.42 4.792 9.024 4.984 8.688C5.176 8.352 5.44 8.096 5.776 7.92C6.112 7.736 6.468 7.604 6.844 7.524C7.22 7.444 7.628 7.404 8.068 7.404C8.284 7.404 8.496 7.384 8.704 7.344C8.92 7.304 9.136 7.24 9.352 7.152C9.568 7.064 9.744 6.928 9.88 6.744C10.016 6.552 10.084 6.328 10.084 6.072C10.084 5.176 9.44 4.704 8.152 4.656C7.8 4.656 7.476 4.696 7.18 4.776C6.884 4.856 6.628 5 6.412 5.208C6.196 5.416 6.084 5.676 6.076 5.988ZM15.6139 7.272H17.4619V5.424H18.6979V7.272H20.5579V8.424H18.6979V10.296H17.4619V8.424H15.6139V7.272ZM21.7097 12V10.884H23.2217V5.244L21.7817 5.652V4.476L24.5537 3.6V10.884H26.0177V12H21.7097Z" fill="#FEFEFE"/>
</svg>
