<svg width="24" height="24" viewBox="0 0 24 24" fill="none" xmlns="http://www.w3.org/2000/svg">
<g clip-path="url(#clip0_2568_2791)">
<path fill-rule="evenodd" clip-rule="evenodd" d="M6.95951 2.85406C6.83724 2.89308 6.63024 3.01735 6.49951 3.13017C6.00958 3.55302 0.0585025 9.00486 -0.0680699 9.14684C-0.304558 9.41207 -0.396073 9.67226 -0.396073 10.0794C-0.396073 10.5234 -0.293034 10.7723 -0.000425816 11.035C0.288357 11.2942 0.540194 11.3918 0.923398 11.393L1.25024 11.3941V15.7V20.006H0.523925C-0.137844 20.006 -0.211009 20.0145 -0.299232 20.1022C-0.43573 20.2378 -0.432825 20.5835 -0.294147 20.7082C-0.194497 20.7978 0.0784032 20.7998 11.9997 20.7998C23.921 20.7998 24.1939 20.7978 24.2935 20.7082C24.44 20.5765 24.4344 20.2516 24.2834 20.1106C24.1884 20.0219 24.1146 20.006 23.7992 20.006H23.427V15.1278V10.2496L23.8192 10.2319C24.2843 10.211 24.396 10.1249 24.3946 9.78907C24.3933 9.48915 23.0717 5.10205 22.9447 4.97576L22.8433 4.87506L16.5331 4.86251L10.2227 4.84995L9.21157 3.92872C8.57241 3.34643 8.12103 2.97261 7.98458 2.91266C7.70378 2.78926 7.24485 2.76299 6.95951 2.85406ZM7.74911 3.73243C8.19724 4.07522 14.2753 9.73793 14.3262 9.86013C14.5016 10.2809 14.0629 10.6961 13.6389 10.5106C13.5496 10.4716 12.1479 9.21463 10.5241 7.71746C7.71245 5.12524 7.56288 4.99534 7.38992 4.99534C7.22132 4.99534 7.13794 5.06015 6.22666 5.8992C5.68671 6.39633 4.32299 7.65203 3.19613 8.68964L1.1473 10.5762H0.915312C0.536514 10.5762 0.309468 10.2882 0.410281 9.93552C0.443788 9.81818 1.2117 9.08184 3.69685 6.78406C5.48044 5.13496 7.00507 3.74402 7.08497 3.69307C7.2954 3.55894 7.54133 3.57352 7.74911 3.73243ZM22.4297 5.92148C22.4709 6.06037 22.7205 6.89933 22.9846 7.78578L23.4647 9.3975L19.2695 9.41039L15.0744 9.42328L14.9375 9.25514C14.8621 9.16267 13.9743 8.32611 12.9643 7.39613C11.9544 6.46614 11.1281 5.69709 11.1281 5.68708C11.1281 5.67707 13.6541 5.66889 16.7415 5.66889H22.3549L22.4297 5.92148ZM10.1053 8.39963L12.726 10.8176V15.4118V20.006H11.9764H11.2267L11.2137 16.1691L11.2007 12.3323L11.0641 12.0558C10.9501 11.825 10.7198 11.5825 9.67127 10.5884C8.30038 9.28877 8.06675 9.11985 7.56346 9.06423C7.2279 9.02714 6.81555 9.12023 6.54023 9.29517C6.33062 9.42838 4.04239 11.5752 3.87228 11.7982C3.80977 11.8803 3.71172 12.0448 3.65439 12.1639C3.55091 12.379 3.55014 12.4044 3.53673 16.1691L3.52322 19.9579H2.79831H2.0734V15.4148V10.8717L4.74086 8.41204C6.20792 7.05925 7.42546 5.95896 7.44643 5.96699C7.46739 5.97502 8.66388 7.06969 10.1053 8.39963ZM7.77516 10.0048C7.88837 10.0839 10.2565 12.3102 10.2565 12.3374C10.2565 12.3478 8.96007 12.3563 7.37549 12.3563C5.79092 12.3563 4.49638 12.3401 4.4987 12.3202C4.50408 12.2748 6.89501 10.0388 7.0025 9.97868C7.22326 9.85518 7.57842 9.86716 7.77516 10.0048ZM22.5555 13.2825C22.5556 14.9561 22.57 17.1536 22.5876 18.1657L22.6196 20.006H18.0844H13.5492V15.7V11.3941L13.8518 11.3936C14.4581 11.3927 14.9561 11.0234 15.107 10.4629L15.1672 10.2394H18.8613H22.5555L22.5555 13.2825ZM14.9202 12.4042C14.8621 12.4278 14.7912 12.4902 14.7628 12.5429C14.7279 12.6078 14.7113 13.6158 14.7113 15.6653C14.7113 18.6813 14.7116 18.6924 14.8132 18.7837C14.9112 18.8719 15.036 18.8754 18.1007 18.8754C21.1654 18.8754 21.2902 18.8719 21.3883 18.7837C21.4899 18.6924 21.4902 18.6819 21.4902 15.6279C21.4902 12.5741 21.4899 12.5634 21.3883 12.472C21.2906 12.3841 21.1591 12.38 18.1562 12.3709C16.4097 12.3656 14.9792 12.3803 14.9202 12.4042ZM10.4502 16.5901V20.006H7.3997H4.34918V16.5901V13.1742H7.3997H10.4502V16.5901ZM17.6649 14.2086V15.243H16.5755H15.486V14.2086V13.1742H16.5755H17.6649V14.2086ZM20.667 14.2086V15.243H19.5776H18.4881V14.2086V13.1742H19.5776H20.667V14.2086ZM9.06805 15.8422C8.95392 15.9556 8.94917 15.9855 8.94917 16.5901C8.94917 17.1947 8.95392 17.2246 9.06805 17.338C9.15007 17.4195 9.24072 17.4561 9.36075 17.4561C9.48079 17.4561 9.57143 17.4195 9.65346 17.338C9.76758 17.2246 9.77233 17.1947 9.77233 16.5901C9.77233 15.9855 9.76758 15.9556 9.65346 15.8422C9.49178 15.6815 9.22972 15.6815 9.06805 15.8422ZM17.6649 17.0471V18.0815H16.5755H15.486V17.0471V16.0128H16.5755H17.6649V17.0471ZM20.667 17.0471V18.0815H19.5776H18.4881V17.0471V16.0128H19.5776H20.667V17.0471Z" fill="#0B1547"/>
</g>
<defs>
<clipPath id="clip0_2568_2791">
<rect width="24" height="24" fill="white"/>
</clipPath>
</defs>
</svg>
