<svg width="24" height="24" viewBox="0 0 24 24" fill="none" xmlns="http://www.w3.org/2000/svg">
<mask id="path-1-outside-1_2568_2775" maskUnits="userSpaceOnUse" x="0" y="0" width="24" height="24" fill="black">
<rect fill="white" width="24" height="24"/>
<path d="M11.8321 23C11.8025 22.9998 11.7734 22.9924 11.7472 22.9784C11.721 22.9644 11.6985 22.9442 11.6815 22.9195L3.76639 10.9098C3.74356 10.8786 3.73122 10.8406 3.73122 10.8017C3.73122 10.7627 3.74356 10.7248 3.76639 10.6935L3.78367 10.6709C3.80076 10.6497 3.82224 10.6326 3.84656 10.6209C3.87088 10.6092 3.89744 10.603 3.92435 10.603H9.17888C9.21983 10.6026 9.25963 10.6167 9.29156 10.6428C9.32349 10.669 9.34559 10.7055 9.35412 10.7463L12.0073 22.7762C12.0169 22.8181 12.0115 22.8622 11.992 22.9005C11.9725 22.9387 11.9403 22.9687 11.9012 22.9849C11.8794 22.9947 11.8559 22.9998 11.8321 23ZM4.24273 10.9702L11.4495 21.9034L9.0382 10.9702H4.24273Z"/>
<path d="M11.8321 23C11.7912 22.9999 11.7517 22.9856 11.7198 22.9596C11.688 22.9335 11.6658 22.8972 11.6568 22.8566L9.00612 10.8268C8.99997 10.7999 8.99988 10.7718 9.00587 10.7448C9.01185 10.7178 9.02375 10.6925 9.04067 10.6709C9.0575 10.65 9.07857 10.6331 9.10244 10.6214C9.12631 10.6097 9.15239 10.6034 9.17888 10.603H14.4803C14.5072 10.603 14.5338 10.6092 14.5581 10.6209C14.5824 10.6326 14.6039 10.6497 14.621 10.6709C14.6379 10.6925 14.6498 10.7178 14.6558 10.7448C14.6618 10.7718 14.6617 10.7999 14.6555 10.8268L12.0073 22.8566C11.9979 22.897 11.9756 22.9331 11.9439 22.959C11.9121 22.985 11.8728 22.9994 11.8321 23ZM9.40595 10.9702L11.8321 21.9789L14.2557 10.9702H9.40595Z"/>
<path d="M11.8321 23C11.8067 22.9999 11.7815 22.9947 11.758 22.9849C11.7179 22.9696 11.6846 22.94 11.6642 22.9017C11.6438 22.8633 11.6377 22.8187 11.647 22.7762L14.3051 10.7463C14.314 10.7057 14.3362 10.6694 14.3681 10.6434C14.3999 10.6174 14.4395 10.6031 14.4803 10.603H20.0705C20.0954 10.6027 20.1202 10.6077 20.1431 10.6176C20.166 10.6276 20.1867 10.6423 20.2038 10.6608L20.2235 10.6835C20.2507 10.7144 20.267 10.7538 20.2696 10.7953C20.2723 10.8368 20.2613 10.878 20.2383 10.9123L11.9777 22.922C11.9614 22.946 11.9396 22.9656 11.9143 22.9792C11.8889 22.9928 11.8607 22.9999 11.8321 23ZM14.6259 10.9702L12.2072 21.9512L19.7595 10.9702H14.6259Z"/>
<path d="M20.0705 10.9702H14.4803C14.4325 10.9702 14.3867 10.9508 14.3529 10.9164C14.3191 10.882 14.3001 10.8353 14.3001 10.7866V7.12456C14.3001 7.07587 14.3191 7.02917 14.3529 6.99474C14.3867 6.9603 14.4325 6.94096 14.4803 6.94096H16.8299C16.855 6.9413 16.8797 6.94683 16.9026 6.9572C16.9255 6.96758 16.9461 6.98259 16.9632 7.00132L20.2038 10.6633C20.2273 10.6893 20.2429 10.7217 20.2486 10.7565C20.2543 10.7914 20.2499 10.8272 20.2359 10.8595C20.2219 10.8924 20.1988 10.9204 20.1694 10.94C20.14 10.9597 20.1057 10.9702 20.0705 10.9702ZM14.6605 10.603H19.6657L16.7485 7.30817H14.6605V10.603Z"/>
<path d="M14.4803 10.9702H9.17888C9.1311 10.9702 9.08527 10.9508 9.05148 10.9164C9.0177 10.882 8.99871 10.8353 8.99871 10.7866V7.12456C8.99871 7.07587 9.0177 7.02917 9.05148 6.99474C9.08527 6.9603 9.1311 6.94096 9.17888 6.94096H14.4803C14.5281 6.94096 14.5739 6.9603 14.6077 6.99474C14.6415 7.02917 14.6605 7.07587 14.6605 7.12456V10.7866C14.6605 10.8353 14.6415 10.882 14.6077 10.9164C14.5739 10.9508 14.5281 10.9702 14.4803 10.9702ZM9.36152 10.603H14.2977V7.30817H9.36152V10.603Z"/>
<path d="M9.17888 10.9702H3.93176C3.89757 10.9701 3.8641 10.9602 3.83525 10.9415C3.80641 10.9228 3.78338 10.8961 3.76886 10.8645C3.75463 10.8333 3.74917 10.7987 3.75309 10.7645C3.75701 10.7303 3.77016 10.6979 3.79108 10.6709L6.69353 7.00887C6.71062 6.98769 6.7321 6.97062 6.75642 6.95888C6.78074 6.94714 6.8073 6.94102 6.83421 6.94096H9.17888C9.22667 6.94096 9.2725 6.9603 9.30628 6.99474C9.34007 7.02917 9.35905 7.07587 9.35905 7.12456V10.7866C9.35905 10.8353 9.34007 10.882 9.30628 10.9164C9.2725 10.9508 9.22667 10.9702 9.17888 10.9702ZM4.30937 10.603H8.99871V7.30817H6.91813L4.30937 10.603Z"/>
<path d="M10.5536 6.21158C10.5155 6.21108 10.4785 6.1988 10.4475 6.17636C10.417 6.15309 10.3945 6.1207 10.383 6.08372C10.3715 6.04674 10.3716 6.00703 10.3833 5.97012L10.9065 4.35793L9.55403 3.36446C9.52274 3.34246 9.49932 3.31069 9.4873 3.27395C9.47528 3.2372 9.47532 3.19746 9.48739 3.16074C9.49918 3.12397 9.52192 3.09187 9.55244 3.06888C9.58296 3.04589 9.61975 3.03316 9.65769 3.03246H11.3212L11.8321 1.42279C11.8433 1.38587 11.8659 1.35366 11.8966 1.33098C11.9274 1.30831 11.9644 1.29639 12.0024 1.29703C12.0403 1.29639 12.0774 1.30831 12.1081 1.33098C12.1388 1.35366 12.1614 1.38587 12.1727 1.42279L12.6836 3.03749H14.3446C14.3829 3.03767 14.4203 3.05016 14.4513 3.07318C14.4823 3.09621 14.5054 3.1286 14.5173 3.16577C14.5294 3.20249 14.5294 3.24223 14.5174 3.27898C14.5054 3.31572 14.482 3.34749 14.4507 3.36949L13.1056 4.36296L13.6214 5.97012C13.6331 6.00703 13.6333 6.04674 13.6218 6.08372C13.6103 6.1207 13.5877 6.15309 13.5573 6.17636C13.5261 6.19855 13.4891 6.21045 13.4511 6.21045C13.4132 6.21045 13.3761 6.19855 13.345 6.17636L12.0024 5.17032L10.6597 6.17636C10.6287 6.1988 10.5917 6.21108 10.5536 6.21158ZM10.2155 3.40219L11.2027 4.13912C11.2339 4.16181 11.2572 4.19403 11.2691 4.23112C11.2811 4.26821 11.2812 4.30823 11.2693 4.34536L10.9065 5.54507L11.8938 4.79053C11.9244 4.76726 11.9617 4.75469 11.9999 4.75469C12.0381 4.75469 12.0754 4.76726 12.106 4.79053L13.0933 5.53249L12.7082 4.3353C12.6964 4.29817 12.6964 4.25815 12.7084 4.22106C12.7204 4.18397 12.7437 4.15175 12.7749 4.12906L13.7769 3.39213H12.5429C12.5088 3.3901 12.476 3.37811 12.4484 3.3576C12.4208 3.33708 12.3997 3.3089 12.3874 3.27643L12.0024 2.07672L11.6223 3.27643C11.6108 3.31339 11.5882 3.34571 11.5576 3.36875C11.527 3.3918 11.49 3.40438 11.452 3.4047L10.2155 3.40219Z"/>
<path d="M7.57957 3.98318C7.55562 3.98324 7.53191 3.97838 7.50986 3.96887C7.4878 3.95936 7.46786 3.94541 7.45123 3.92785L4.88196 1.30961C4.85161 1.27502 4.83483 1.23025 4.83483 1.18385C4.83483 1.13745 4.85161 1.09268 4.88196 1.0581C4.91565 1.02663 4.95968 1.00918 5.00537 1.00918C5.05106 1.00918 5.09509 1.02663 5.12877 1.0581L7.69804 3.66879C7.72945 3.70284 7.74693 3.74781 7.74693 3.79455C7.74693 3.84128 7.72945 3.88625 7.69804 3.9203C7.68357 3.93849 7.66559 3.95345 7.64521 3.96427C7.62483 3.97508 7.60249 3.98152 7.57957 3.98318Z"/>
<path d="M4.73635 7.08935H4.68945L1.16751 6.12103C1.14091 6.11912 1.11505 6.11122 1.0918 6.09789C1.06856 6.08456 1.04851 6.06613 1.0331 6.04395C1.0177 6.02176 1.00731 5.99637 1.00271 5.96959C0.998101 5.94282 0.999384 5.91534 1.00647 5.88914C1.01355 5.86293 1.02625 5.83866 1.04365 5.81806C1.06106 5.79747 1.08273 5.78107 1.10711 5.77005C1.1315 5.75903 1.15797 5.75366 1.18464 5.75433C1.2113 5.75501 1.23748 5.76171 1.2613 5.77394L4.7709 6.73221C4.81007 6.74507 4.84375 6.77121 4.86632 6.80628C4.88889 6.84135 4.89899 6.88324 4.89495 6.92498C4.89092 6.96672 4.87298 7.00579 4.84412 7.03569C4.81526 7.0656 4.77723 7.08454 4.73635 7.08935Z"/>
<path d="M16.4252 3.98318C16.4015 3.9835 16.3781 3.97874 16.3564 3.96921C16.3347 3.95967 16.3153 3.94558 16.2993 3.92785C16.2673 3.89409 16.2494 3.84901 16.2494 3.80209C16.2494 3.75518 16.2673 3.71009 16.2993 3.67633L18.8661 1.04803C18.9 1.0171 18.944 1 18.9895 1C19.035 1 19.0789 1.0171 19.1129 1.04803C19.1432 1.08262 19.16 1.12739 19.16 1.17379C19.16 1.22019 19.1432 1.26496 19.1129 1.29955L16.5535 3.92785C16.537 3.94565 16.5171 3.95976 16.495 3.96928C16.4729 3.97881 16.4491 3.98354 16.4252 3.98318Z"/>
<path d="M19.2807 7.08935C19.2361 7.0907 19.1926 7.07513 19.1586 7.04567C19.1246 7.0162 19.1026 6.97493 19.0968 6.92985C19.0909 6.88476 19.1017 6.83908 19.127 6.80164C19.1523 6.7642 19.1904 6.73766 19.2338 6.72718L22.7533 5.77394C22.7769 5.76439 22.8022 5.76003 22.8275 5.76113C22.8529 5.76224 22.8777 5.76879 22.9004 5.78036C22.9231 5.79193 22.9432 5.80825 22.9592 5.82826C22.9753 5.84827 22.9871 5.87152 22.9937 5.89648C23.0004 5.92143 23.0018 5.94754 22.9978 5.97309C22.9939 5.99864 22.9847 6.02305 22.9708 6.04472C22.957 6.0664 22.9388 6.08485 22.9175 6.09886C22.8962 6.11288 22.8722 6.12215 22.8471 6.12606L19.3276 7.08181C19.3124 7.08675 19.2966 7.0893 19.2807 7.08935Z"/>
<path d="M18.2367 23H5.768C5.72022 23 5.67439 22.9807 5.6406 22.9462C5.60682 22.9118 5.58783 22.8651 5.58783 22.8164C5.58783 22.7677 5.60682 22.721 5.6406 22.6866C5.67439 22.6521 5.72022 22.6328 5.768 22.6328H18.2367C18.2845 22.6328 18.3303 22.6521 18.3641 22.6866C18.3979 22.721 18.4169 22.7677 18.4169 22.8164C18.4169 22.8651 18.3979 22.9118 18.3641 22.9462C18.3303 22.9807 18.2845 23 18.2367 23Z"/>
</mask>
<path d="M11.8321 23C11.8025 22.9998 11.7734 22.9924 11.7472 22.9784C11.721 22.9644 11.6985 22.9442 11.6815 22.9195L3.76639 10.9098C3.74356 10.8786 3.73122 10.8406 3.73122 10.8017C3.73122 10.7627 3.74356 10.7248 3.76639 10.6935L3.78367 10.6709C3.80076 10.6497 3.82224 10.6326 3.84656 10.6209C3.87088 10.6092 3.89744 10.603 3.92435 10.603H9.17888C9.21983 10.6026 9.25963 10.6167 9.29156 10.6428C9.32349 10.669 9.34559 10.7055 9.35412 10.7463L12.0073 22.7762C12.0169 22.8181 12.0115 22.8622 11.992 22.9005C11.9725 22.9387 11.9403 22.9687 11.9012 22.9849C11.8794 22.9947 11.8559 22.9998 11.8321 23ZM4.24273 10.9702L11.4495 21.9034L9.0382 10.9702H4.24273Z" fill="#0B1547"/>
<path d="M11.8321 23C11.7912 22.9999 11.7517 22.9856 11.7198 22.9596C11.688 22.9335 11.6658 22.8972 11.6568 22.8566L9.00612 10.8268C8.99997 10.7999 8.99988 10.7718 9.00587 10.7448C9.01185 10.7178 9.02375 10.6925 9.04067 10.6709C9.0575 10.65 9.07857 10.6331 9.10244 10.6214C9.12631 10.6097 9.15239 10.6034 9.17888 10.603H14.4803C14.5072 10.603 14.5338 10.6092 14.5581 10.6209C14.5824 10.6326 14.6039 10.6497 14.621 10.6709C14.6379 10.6925 14.6498 10.7178 14.6558 10.7448C14.6618 10.7718 14.6617 10.7999 14.6555 10.8268L12.0073 22.8566C11.9979 22.897 11.9756 22.9331 11.9439 22.959C11.9121 22.985 11.8728 22.9994 11.8321 23ZM9.40595 10.9702L11.8321 21.9789L14.2557 10.9702H9.40595Z" fill="#0B1547"/>
<path d="M11.8321 23C11.8067 22.9999 11.7815 22.9947 11.758 22.9849C11.7179 22.9696 11.6846 22.94 11.6642 22.9017C11.6438 22.8633 11.6377 22.8187 11.647 22.7762L14.3051 10.7463C14.314 10.7057 14.3362 10.6694 14.3681 10.6434C14.3999 10.6174 14.4395 10.6031 14.4803 10.603H20.0705C20.0954 10.6027 20.1202 10.6077 20.1431 10.6176C20.166 10.6276 20.1867 10.6423 20.2038 10.6608L20.2235 10.6835C20.2507 10.7144 20.267 10.7538 20.2696 10.7953C20.2723 10.8368 20.2613 10.878 20.2383 10.9123L11.9777 22.922C11.9614 22.946 11.9396 22.9656 11.9143 22.9792C11.8889 22.9928 11.8607 22.9999 11.8321 23ZM14.6259 10.9702L12.2072 21.9512L19.7595 10.9702H14.6259Z" fill="#0B1547"/>
<path d="M20.0705 10.9702H14.4803C14.4325 10.9702 14.3867 10.9508 14.3529 10.9164C14.3191 10.882 14.3001 10.8353 14.3001 10.7866V7.12456C14.3001 7.07587 14.3191 7.02917 14.3529 6.99474C14.3867 6.9603 14.4325 6.94096 14.4803 6.94096H16.8299C16.855 6.9413 16.8797 6.94683 16.9026 6.9572C16.9255 6.96758 16.9461 6.98259 16.9632 7.00132L20.2038 10.6633C20.2273 10.6893 20.2429 10.7217 20.2486 10.7565C20.2543 10.7914 20.2499 10.8272 20.2359 10.8595C20.2219 10.8924 20.1988 10.9204 20.1694 10.94C20.14 10.9597 20.1057 10.9702 20.0705 10.9702ZM14.6605 10.603H19.6657L16.7485 7.30817H14.6605V10.603Z" fill="#0B1547"/>
<path d="M14.4803 10.9702H9.17888C9.1311 10.9702 9.08527 10.9508 9.05148 10.9164C9.0177 10.882 8.99871 10.8353 8.99871 10.7866V7.12456C8.99871 7.07587 9.0177 7.02917 9.05148 6.99474C9.08527 6.9603 9.1311 6.94096 9.17888 6.94096H14.4803C14.5281 6.94096 14.5739 6.9603 14.6077 6.99474C14.6415 7.02917 14.6605 7.07587 14.6605 7.12456V10.7866C14.6605 10.8353 14.6415 10.882 14.6077 10.9164C14.5739 10.9508 14.5281 10.9702 14.4803 10.9702ZM9.36152 10.603H14.2977V7.30817H9.36152V10.603Z" fill="#0B1547"/>
<path d="M9.17888 10.9702H3.93176C3.89757 10.9701 3.8641 10.9602 3.83525 10.9415C3.80641 10.9228 3.78338 10.8961 3.76886 10.8645C3.75463 10.8333 3.74917 10.7987 3.75309 10.7645C3.75701 10.7303 3.77016 10.6979 3.79108 10.6709L6.69353 7.00887C6.71062 6.98769 6.7321 6.97062 6.75642 6.95888C6.78074 6.94714 6.8073 6.94102 6.83421 6.94096H9.17888C9.22667 6.94096 9.2725 6.9603 9.30628 6.99474C9.34007 7.02917 9.35905 7.07587 9.35905 7.12456V10.7866C9.35905 10.8353 9.34007 10.882 9.30628 10.9164C9.2725 10.9508 9.22667 10.9702 9.17888 10.9702ZM4.30937 10.603H8.99871V7.30817H6.91813L4.30937 10.603Z" fill="#0B1547"/>
<path d="M10.5536 6.21158C10.5155 6.21108 10.4785 6.1988 10.4475 6.17636C10.417 6.15309 10.3945 6.1207 10.383 6.08372C10.3715 6.04674 10.3716 6.00703 10.3833 5.97012L10.9065 4.35793L9.55403 3.36446C9.52274 3.34246 9.49932 3.31069 9.4873 3.27395C9.47528 3.2372 9.47532 3.19746 9.48739 3.16074C9.49918 3.12397 9.52192 3.09187 9.55244 3.06888C9.58296 3.04589 9.61975 3.03316 9.65769 3.03246H11.3212L11.8321 1.42279C11.8433 1.38587 11.8659 1.35366 11.8966 1.33098C11.9274 1.30831 11.9644 1.29639 12.0024 1.29703C12.0403 1.29639 12.0774 1.30831 12.1081 1.33098C12.1388 1.35366 12.1614 1.38587 12.1727 1.42279L12.6836 3.03749H14.3446C14.3829 3.03767 14.4203 3.05016 14.4513 3.07318C14.4823 3.09621 14.5054 3.1286 14.5173 3.16577C14.5294 3.20249 14.5294 3.24223 14.5174 3.27898C14.5054 3.31572 14.482 3.34749 14.4507 3.36949L13.1056 4.36296L13.6214 5.97012C13.6331 6.00703 13.6333 6.04674 13.6218 6.08372C13.6103 6.1207 13.5877 6.15309 13.5573 6.17636C13.5261 6.19855 13.4891 6.21045 13.4511 6.21045C13.4132 6.21045 13.3761 6.19855 13.345 6.17636L12.0024 5.17032L10.6597 6.17636C10.6287 6.1988 10.5917 6.21108 10.5536 6.21158ZM10.2155 3.40219L11.2027 4.13912C11.2339 4.16181 11.2572 4.19403 11.2691 4.23112C11.2811 4.26821 11.2812 4.30823 11.2693 4.34536L10.9065 5.54507L11.8938 4.79053C11.9244 4.76726 11.9617 4.75469 11.9999 4.75469C12.0381 4.75469 12.0754 4.76726 12.106 4.79053L13.0933 5.53249L12.7082 4.3353C12.6964 4.29817 12.6964 4.25815 12.7084 4.22106C12.7204 4.18397 12.7437 4.15175 12.7749 4.12906L13.7769 3.39213H12.5429C12.5088 3.3901 12.476 3.37811 12.4484 3.3576C12.4208 3.33708 12.3997 3.3089 12.3874 3.27643L12.0024 2.07672L11.6223 3.27643C11.6108 3.31339 11.5882 3.34571 11.5576 3.36875C11.527 3.3918 11.49 3.40438 11.452 3.4047L10.2155 3.40219Z" fill="#0B1547"/>
<path d="M7.57957 3.98318C7.55562 3.98324 7.53191 3.97838 7.50986 3.96887C7.4878 3.95936 7.46786 3.94541 7.45123 3.92785L4.88196 1.30961C4.85161 1.27502 4.83483 1.23025 4.83483 1.18385C4.83483 1.13745 4.85161 1.09268 4.88196 1.0581C4.91565 1.02663 4.95968 1.00918 5.00537 1.00918C5.05106 1.00918 5.09509 1.02663 5.12877 1.0581L7.69804 3.66879C7.72945 3.70284 7.74693 3.74781 7.74693 3.79455C7.74693 3.84128 7.72945 3.88625 7.69804 3.9203C7.68357 3.93849 7.66559 3.95345 7.64521 3.96427C7.62483 3.97508 7.60249 3.98152 7.57957 3.98318Z" fill="#0B1547"/>
<path d="M4.73635 7.08935H4.68945L1.16751 6.12103C1.14091 6.11912 1.11505 6.11122 1.0918 6.09789C1.06856 6.08456 1.04851 6.06613 1.0331 6.04395C1.0177 6.02176 1.00731 5.99637 1.00271 5.96959C0.998101 5.94282 0.999384 5.91534 1.00647 5.88914C1.01355 5.86293 1.02625 5.83866 1.04365 5.81806C1.06106 5.79747 1.08273 5.78107 1.10711 5.77005C1.1315 5.75903 1.15797 5.75366 1.18464 5.75433C1.2113 5.75501 1.23748 5.76171 1.2613 5.77394L4.7709 6.73221C4.81007 6.74507 4.84375 6.77121 4.86632 6.80628C4.88889 6.84135 4.89899 6.88324 4.89495 6.92498C4.89092 6.96672 4.87298 7.00579 4.84412 7.03569C4.81526 7.0656 4.77723 7.08454 4.73635 7.08935Z" fill="#0B1547"/>
<path d="M16.4252 3.98318C16.4015 3.9835 16.3781 3.97874 16.3564 3.96921C16.3347 3.95967 16.3153 3.94558 16.2993 3.92785C16.2673 3.89409 16.2494 3.84901 16.2494 3.80209C16.2494 3.75518 16.2673 3.71009 16.2993 3.67633L18.8661 1.04803C18.9 1.0171 18.944 1 18.9895 1C19.035 1 19.0789 1.0171 19.1129 1.04803C19.1432 1.08262 19.16 1.12739 19.16 1.17379C19.16 1.22019 19.1432 1.26496 19.1129 1.29955L16.5535 3.92785C16.537 3.94565 16.5171 3.95976 16.495 3.96928C16.4729 3.97881 16.4491 3.98354 16.4252 3.98318Z" fill="#0B1547"/>
<path d="M19.2807 7.08935C19.2361 7.0907 19.1926 7.07513 19.1586 7.04567C19.1246 7.0162 19.1026 6.97493 19.0968 6.92985C19.0909 6.88476 19.1017 6.83908 19.127 6.80164C19.1523 6.7642 19.1904 6.73766 19.2338 6.72718L22.7533 5.77394C22.7769 5.76439 22.8022 5.76003 22.8275 5.76113C22.8529 5.76224 22.8777 5.76879 22.9004 5.78036C22.9231 5.79193 22.9432 5.80825 22.9592 5.82826C22.9753 5.84827 22.9871 5.87152 22.9937 5.89648C23.0004 5.92143 23.0018 5.94754 22.9978 5.97309C22.9939 5.99864 22.9847 6.02305 22.9708 6.04472C22.957 6.0664 22.9388 6.08485 22.9175 6.09886C22.8962 6.11288 22.8722 6.12215 22.8471 6.12606L19.3276 7.08181C19.3124 7.08675 19.2966 7.0893 19.2807 7.08935Z" fill="#0B1547"/>
<path d="M18.2367 23H5.768C5.72022 23 5.67439 22.9807 5.6406 22.9462C5.60682 22.9118 5.58783 22.8651 5.58783 22.8164C5.58783 22.7677 5.60682 22.721 5.6406 22.6866C5.67439 22.6521 5.72022 22.6328 5.768 22.6328H18.2367C18.2845 22.6328 18.3303 22.6521 18.3641 22.6866C18.3979 22.721 18.4169 22.7677 18.4169 22.8164C18.4169 22.8651 18.3979 22.9118 18.3641 22.9462C18.3303 22.9807 18.2845 23 18.2367 23Z" fill="#0B1547"/>
<path d="M11.8321 23L11.8314 23.2L11.8326 23.2L11.8321 23ZM11.6815 22.9195L11.5145 23.0296L11.5166 23.0327L11.6815 22.9195ZM3.76639 10.9098L3.93358 10.7996L3.92788 10.7918L3.76639 10.9098ZM3.76639 10.6935L3.60737 10.5722L3.60491 10.5755L3.76639 10.6935ZM3.78367 10.6709L3.62797 10.5452L3.62469 10.5495L3.78367 10.6709ZM3.92435 10.603V10.403L3.92392 10.403L3.92435 10.603ZM9.35412 10.7463L9.15833 10.7873L9.15881 10.7894L9.35412 10.7463ZM12.0073 22.7762L11.812 22.8192L11.8123 22.8206L12.0073 22.7762ZM11.9012 22.9849L11.8246 22.8001L11.8194 22.8024L11.9012 22.9849ZM4.24273 10.9702V10.7702H3.87136L4.07575 11.0803L4.24273 10.9702ZM11.4495 21.9034L11.2825 22.0135L11.6448 21.8603L11.4495 21.9034ZM9.0382 10.9702L9.23351 10.9271L9.1989 10.7702H9.0382V10.9702ZM11.6568 22.8566L11.4615 22.8997L11.4615 22.8997L11.6568 22.8566ZM9.00612 10.8268L9.20144 10.7838L9.20111 10.7824L9.00612 10.8268ZM9.04067 10.6709L8.88498 10.5453L8.88308 10.5477L9.04067 10.6709ZM14.621 10.6709L14.7786 10.5477L14.7766 10.5453L14.621 10.6709ZM14.6555 10.8268L14.4605 10.7824L14.4602 10.7838L14.6555 10.8268ZM12.0073 22.8566L12.2022 22.9018L12.2026 22.8996L12.0073 22.8566ZM9.40595 10.9702V10.7702H9.15707L9.21063 11.0132L9.40595 10.9702ZM11.8321 21.9789L11.6368 22.0219L12.0274 22.0219L11.8321 21.9789ZM14.2557 10.9702L14.451 11.0132L14.5045 10.7702H14.2557V10.9702ZM11.758 22.9849L11.8353 22.8003L11.8294 22.7981L11.758 22.9849ZM11.647 22.7762L11.4517 22.733L11.4515 22.7336L11.647 22.7762ZM14.3051 10.7463L14.5004 10.7895L14.5004 10.7894L14.3051 10.7463ZM20.0705 10.603V10.803L20.0728 10.803L20.0705 10.603ZM20.2038 10.6608L20.3545 10.5293L20.3508 10.5252L20.2038 10.6608ZM20.2235 10.6835L20.0728 10.8149L20.0732 10.8154L20.2235 10.6835ZM20.2383 10.9123L20.4031 11.0257L20.4046 11.0235L20.2383 10.9123ZM11.9777 22.922L11.8129 22.8087L11.8123 22.8096L11.9777 22.922ZM14.6259 10.9702V10.7702H14.4652L14.4306 10.9272L14.6259 10.9702ZM12.2072 21.9512L12.0119 21.9082L12.372 22.0645L12.2072 21.9512ZM19.7595 10.9702L19.9243 11.0835L20.1398 10.7702H19.7595V10.9702ZM20.0705 10.9702L20.0705 10.7702H20.0705V10.9702ZM16.8299 6.94096L16.8326 6.74096H16.8299V6.94096ZM16.9632 7.00132L17.113 6.86877L17.1111 6.86673L16.9632 7.00132ZM20.2038 10.6633L20.054 10.7959L20.0557 10.7978L20.2038 10.6633ZM20.2359 10.8595L20.0524 10.7799L20.0518 10.7813L20.2359 10.8595ZM14.6605 10.603H14.4605V10.803H14.6605V10.603ZM19.6657 10.603V10.803H20.1099L19.8155 10.4704L19.6657 10.603ZM16.7485 7.30817L16.8982 7.17559L16.8385 7.10817H16.7485V7.30817ZM14.6605 7.30817V7.10817H14.4605V7.30817H14.6605ZM8.99871 7.12456H9.19871H8.99871ZM14.6605 10.7866H14.8605H14.6605ZM9.36152 10.603H9.16152V10.803H9.36152V10.603ZM14.2977 10.603V10.803H14.4977V10.603H14.2977ZM14.2977 7.30817H14.4977V7.10817H14.2977V7.30817ZM9.36152 7.30817V7.10817H9.16152V7.30817H9.36152ZM3.93176 10.9702L3.9315 11.1702H3.93176V10.9702ZM3.76886 10.8645L3.58688 10.9475L3.58718 10.9482L3.76886 10.8645ZM3.79108 10.6709L3.63433 10.5466L3.63289 10.5485L3.79108 10.6709ZM6.69353 7.00887L6.53788 6.88327L6.53679 6.88464L6.69353 7.00887ZM6.83421 6.94096V6.74096L6.83378 6.74096L6.83421 6.94096ZM9.35905 10.7866H9.55905H9.35905ZM4.30937 10.603L4.15257 10.4788L3.89591 10.803H4.30937V10.603ZM8.99871 10.603V10.803H9.19871V10.603H8.99871ZM8.99871 7.30817H9.19871V7.10817H8.99871V7.30817ZM6.91813 7.30817V7.10817H6.82138L6.76133 7.18402L6.91813 7.30817ZM10.5536 6.21158L10.551 6.41163L10.5562 6.41156L10.5536 6.21158ZM10.4475 6.17636L10.326 6.33532L10.3303 6.33847L10.4475 6.17636ZM10.3833 5.97012L10.1931 5.90838L10.1927 5.90955L10.3833 5.97012ZM10.9065 4.35793L11.0968 4.41967L11.1414 4.28227L11.0249 4.19674L10.9065 4.35793ZM9.55403 3.36446L9.67246 3.20324L9.66906 3.20085L9.55403 3.36446ZM9.48739 3.16074L9.67739 3.22321L9.67784 3.22181L9.48739 3.16074ZM9.65769 3.03246V2.83243L9.654 2.8325L9.65769 3.03246ZM11.3212 3.03246V3.23246H11.4675L11.5118 3.09297L11.3212 3.03246ZM11.8321 1.42279L12.0227 1.4833L12.0234 1.4809L11.8321 1.42279ZM12.0024 1.29703L11.999 1.49712L12.0057 1.497L12.0024 1.29703ZM12.1727 1.42279L11.9813 1.48091L11.982 1.48312L12.1727 1.42279ZM12.6836 3.03749L12.4929 3.09783L12.5371 3.23749H12.6836V3.03749ZM14.3446 3.03749L14.3455 2.83749H14.3446V3.03749ZM14.5173 3.16577L14.3269 3.22687L14.3273 3.22824L14.5173 3.16577ZM14.4507 3.36949L14.3356 3.20584L14.3319 3.20861L14.4507 3.36949ZM13.1056 4.36296L12.9868 4.20209L12.8713 4.28738L12.9152 4.42408L13.1056 4.36296ZM13.6214 5.97012L13.812 5.90955L13.8119 5.909L13.6214 5.97012ZM13.5573 6.17636L13.6734 6.33929L13.6787 6.33527L13.5573 6.17636ZM13.345 6.17636L13.225 6.33646L13.2289 6.3392L13.345 6.17636ZM12.0024 5.17032L12.1223 5.01026L12.0024 4.9204L11.8824 5.01026L12.0024 5.17032ZM10.6597 6.17636L10.7769 6.33849L10.7797 6.33642L10.6597 6.17636ZM10.2155 3.40219L10.2159 3.20219L9.61155 3.20096L10.0958 3.56246L10.2155 3.40219ZM11.2027 4.13912L11.0831 4.2994L11.085 4.30084L11.2027 4.13912ZM11.2693 4.34536L11.0788 4.28451L11.0779 4.28746L11.2693 4.34536ZM10.9065 5.54507L10.7151 5.48718L10.5358 6.08017L11.028 5.70397L10.9065 5.54507ZM11.8938 4.79053L11.7729 4.63121L11.7723 4.63163L11.8938 4.79053ZM12.106 4.79053L11.9851 4.94986L11.9859 4.95041L12.106 4.79053ZM13.0933 5.53249L12.9731 5.69237L13.4764 6.07065L13.2836 5.47126L13.0933 5.53249ZM12.7082 4.3353L12.5177 4.39613L12.5178 4.39653L12.7082 4.3353ZM12.7749 4.12906L12.8925 4.29078L12.8934 4.29018L12.7749 4.12906ZM13.7769 3.39213L13.8954 3.55325L14.3864 3.19213H13.7769V3.39213ZM12.5429 3.39213L12.531 3.59213H12.5429V3.39213ZM12.3874 3.27643L12.1967 3.33763L12.2003 3.34714L12.3874 3.27643ZM12.0024 2.07672L12.1928 2.0156L12.0011 1.41839L11.8117 2.01632L12.0024 2.07672ZM11.6223 3.27643L11.4316 3.21603L11.4313 3.21719L11.6223 3.27643ZM11.452 3.4047L11.4516 3.60471L11.4537 3.60469L11.452 3.4047ZM7.57957 3.98318L7.58012 4.18366L7.59401 4.18266L7.57957 3.98318ZM7.45123 3.92785L7.59647 3.7903L7.59398 3.78777L7.45123 3.92785ZM4.88196 1.30961L4.73142 1.44174L4.73921 1.44969L4.88196 1.30961ZM4.88196 1.0581L4.74545 0.911934L4.7382 0.918707L4.73165 0.926165L4.88196 1.0581ZM5.12877 1.0581L5.27145 0.917685L5.26529 0.911934L5.12877 1.0581ZM7.69804 3.66879L7.84512 3.53311L7.84059 3.5285L7.69804 3.66879ZM7.69804 3.9203L7.55103 3.78469L7.54608 3.79006L7.54154 3.79577L7.69804 3.9203ZM4.73635 7.08935V7.28935H4.74809L4.75975 7.28798L4.73635 7.08935ZM4.68945 7.08935L4.63643 7.2822L4.66246 7.28935H4.68945V7.08935ZM1.16751 6.12103L1.22053 5.92819L1.20151 5.92296L1.18183 5.92154L1.16751 6.12103ZM1.2613 5.77394L1.16988 5.95183L1.18846 5.96138L1.20862 5.96688L1.2613 5.77394ZM4.7709 6.73221L4.83337 6.54194L4.82358 6.53927L4.7709 6.73221ZM16.4252 3.98318L16.4282 3.78312L16.4224 3.7832L16.4252 3.98318ZM16.2993 3.92785L16.4479 3.79392L16.4445 3.79032L16.2993 3.92785ZM16.2494 3.80209H16.4494H16.2494ZM16.2993 3.67633L16.1562 3.53658L16.1541 3.53881L16.2993 3.67633ZM18.8661 1.04803L18.7311 0.899972L18.723 0.908297L18.8661 1.04803ZM18.9895 1V0.8V1ZM19.1129 1.04803L19.2632 0.916104L19.2558 0.907729L19.2476 0.900222L19.1129 1.04803ZM19.1129 1.29955L19.2564 1.43926L19.2632 1.43148L19.1129 1.29955ZM16.5535 3.92785L16.4102 3.78827L16.4066 3.7921L16.5535 3.92785ZM19.2807 7.08935L19.28 6.88928L19.2747 6.88944L19.2807 7.08935ZM19.2338 6.72718L19.2808 6.92166L19.2861 6.92022L19.2338 6.72718ZM22.7533 5.77394L22.8056 5.96699L22.8172 5.96384L22.8284 5.95932L22.7533 5.77394ZM22.8471 6.12606L22.8163 5.92845L22.8053 5.93015L22.7947 5.93305L22.8471 6.12606ZM19.3276 7.08181L19.2751 6.88855L19.2656 6.89167L19.3276 7.08181ZM18.2367 22.6328V22.8328V22.6328ZM11.8333 22.8C11.8363 22.8 11.8391 22.8008 11.8415 22.802L11.6529 23.1548C11.7076 23.184 11.7686 23.1996 11.8308 23.2L11.8333 22.8ZM11.8415 22.802C11.8438 22.8033 11.8454 22.8048 11.8464 22.8063L11.5166 23.0327C11.5516 23.0836 11.5982 23.1256 11.6529 23.1548L11.8415 22.802ZM11.8485 22.8095L3.93339 10.7998L3.5994 11.0199L11.5145 23.0296L11.8485 22.8095ZM3.92788 10.7918C3.93025 10.7951 3.93122 10.7985 3.93122 10.8017H3.53122C3.53122 10.8828 3.55687 10.9621 3.60491 11.0278L3.92788 10.7918ZM3.93122 10.8017C3.93122 10.8048 3.93025 10.8083 3.92788 10.8115L3.60491 10.5755C3.55687 10.6413 3.53122 10.7206 3.53122 10.8017H3.93122ZM3.92538 10.8149L3.94266 10.7922L3.62469 10.5495L3.60741 10.5722L3.92538 10.8149ZM3.93932 10.7965C3.93798 10.7981 3.93605 10.7998 3.9335 10.801L3.75961 10.4408C3.70842 10.4655 3.66355 10.5013 3.62802 10.5453L3.93932 10.7965ZM3.9335 10.801C3.93094 10.8022 3.92795 10.803 3.92479 10.803L3.92392 10.403C3.86693 10.4031 3.81082 10.4161 3.75961 10.4408L3.9335 10.801ZM3.92435 10.803H9.17888V10.403H3.92435V10.803ZM9.18052 10.803C9.17436 10.803 9.16886 10.8009 9.16492 10.7976L9.4182 10.4881C9.3504 10.4326 9.2653 10.4023 9.17724 10.403L9.18052 10.803ZM9.16492 10.7976C9.16106 10.7945 9.15906 10.7907 9.15835 10.7873L9.54989 10.7054C9.53211 10.6204 9.48592 10.5435 9.4182 10.4881L9.16492 10.7976ZM9.15881 10.7894L11.812 22.8192L12.2026 22.7331L9.54942 10.7033L9.15881 10.7894ZM11.8123 22.8206C11.8115 22.8172 11.8119 22.8134 11.8137 22.8098L12.1703 22.9911C12.211 22.911 12.2222 22.8191 12.2023 22.7317L11.8123 22.8206ZM11.8137 22.8098C11.8156 22.8062 11.8191 22.8024 11.8246 22.8002L11.9778 23.1697C12.0615 23.1349 12.1295 23.0713 12.1703 22.9911L11.8137 22.8098ZM11.8194 22.8024C11.8228 22.8009 11.8265 22.8 11.8304 22.8L11.8337 23.2C11.8852 23.1996 11.936 23.1885 11.9829 23.1674L11.8194 22.8024ZM4.07575 11.0803L11.2825 22.0135L11.6165 21.7933L4.40972 10.8601L4.07575 11.0803ZM11.6448 21.8603L9.23351 10.9271L8.8429 11.0133L11.2542 21.9465L11.6448 21.8603ZM9.0382 10.7702H4.24273V11.1702H9.0382V10.7702ZM11.8327 22.8C11.8382 22.8 11.843 22.802 11.8465 22.8048L11.5932 23.1144C11.6603 23.1693 11.7443 23.1997 11.8314 23.2L11.8327 22.8ZM11.8465 22.8048C11.8498 22.8075 11.8515 22.8108 11.8521 22.8136L11.4615 22.8997C11.48 22.9837 11.5262 23.0595 11.5932 23.1144L11.8465 22.8048ZM11.8521 22.8136L9.20143 10.7838L8.8108 10.8699L11.4615 22.8997L11.8521 22.8136ZM9.20111 10.7824C9.20155 10.7843 9.20155 10.7862 9.20113 10.7881L8.8106 10.7016C8.79822 10.7575 8.79839 10.8155 8.81112 10.8713L9.20111 10.7824ZM9.20113 10.7881C9.20071 10.79 9.19981 10.792 9.19826 10.794L8.88308 10.5477C8.84768 10.593 8.82299 10.6456 8.8106 10.7016L9.20113 10.7881ZM9.19634 10.7965C9.19502 10.7981 9.19313 10.7997 9.19064 10.8009L9.01424 10.4419C8.96401 10.4666 8.91997 10.502 8.885 10.5453L9.19634 10.7965ZM9.19064 10.8009C9.18813 10.8022 9.1852 10.8029 9.18209 10.8029L9.17567 10.403C9.11958 10.4039 9.06449 10.4172 9.01424 10.4419L9.19064 10.8009ZM9.17888 10.803H14.4803V10.403H9.17888V10.803ZM14.4799 10.803C14.4767 10.803 14.4737 10.8022 14.4712 10.801L14.645 10.4408C14.5938 10.4161 14.5377 10.4031 14.4807 10.403L14.4799 10.803ZM14.4712 10.801C14.4686 10.7998 14.4667 10.7981 14.4653 10.7965L14.7766 10.5453C14.7411 10.5013 14.6962 10.4655 14.645 10.4408L14.4712 10.801ZM14.4634 10.794C14.4619 10.7921 14.461 10.79 14.4605 10.7881L14.8511 10.7016C14.8387 10.6456 14.814 10.593 14.7786 10.5477L14.4634 10.794ZM14.4605 10.7881C14.4601 10.7862 14.4601 10.7843 14.4605 10.7824L14.8505 10.8713C14.8633 10.8155 14.8634 10.7575 14.8511 10.7016L14.4605 10.7881ZM14.4602 10.7838L11.812 22.8136L12.2026 22.8996L14.8509 10.8698L14.4602 10.7838ZM11.8125 22.8115C11.813 22.8093 11.8144 22.8066 11.8172 22.8042L12.0705 23.1138C12.1369 23.0595 12.1829 22.9847 12.2021 22.9017L11.8125 22.8115ZM11.8172 22.8042C11.8202 22.8018 11.8244 22.8001 11.8292 22.8L11.8349 23.2C11.9212 23.1988 12.0041 23.1682 12.0705 23.1138L11.8172 22.8042ZM9.21063 11.0132L11.6368 22.0219L12.0274 21.9358L9.60126 10.9271L9.21063 11.0132ZM12.0274 22.0219L14.451 11.0132L14.0604 10.9272L11.6367 21.9359L12.0274 22.0219ZM14.2557 10.7702H9.40595V11.1702H14.2557V10.7702ZM11.8331 22.8C11.8339 22.8 11.8347 22.8002 11.8353 22.8004L11.6808 23.1694C11.7284 23.1893 11.7794 23.1997 11.831 23.2L11.8331 22.8ZM11.8294 22.7981C11.8351 22.8003 11.8388 22.804 11.8408 22.8077L11.4877 22.9956C11.5304 23.076 11.6008 23.1389 11.6866 23.1717L11.8294 22.7981ZM11.8408 22.8077C11.8427 22.8114 11.8432 22.8152 11.8424 22.8187L11.4515 22.7336C11.4322 22.8223 11.4449 22.9153 11.4877 22.9956L11.8408 22.8077ZM11.8422 22.8193L14.5004 10.7895L14.1098 10.7032L11.4517 22.733L11.8422 22.8193ZM14.5004 10.7894C14.4998 10.7922 14.4981 10.7955 14.4947 10.7982L14.2414 10.4886C14.1744 10.5434 14.1283 10.6193 14.1098 10.7033L14.5004 10.7894ZM14.4947 10.7982C14.4913 10.801 14.4864 10.803 14.4809 10.803L14.4797 10.403C14.3925 10.4032 14.3085 10.4337 14.2414 10.4886L14.4947 10.7982ZM14.4803 10.803H20.0705V10.403H14.4803V10.803ZM20.0728 10.803C20.0694 10.803 20.0663 10.8023 20.0635 10.8011L20.2227 10.4342C20.174 10.4131 20.1214 10.4024 20.0682 10.403L20.0728 10.803ZM20.0635 10.8011C20.0607 10.7999 20.0584 10.7982 20.0568 10.7964L20.3508 10.5252C20.315 10.4864 20.2714 10.4553 20.2227 10.4342L20.0635 10.8011ZM20.0531 10.7923L20.0728 10.8149L20.3742 10.552L20.3545 10.5293L20.0531 10.7923ZM20.0732 10.8154C20.071 10.8129 20.0702 10.8104 20.0701 10.8082L20.4692 10.7824C20.4637 10.6973 20.4304 10.616 20.3738 10.5515L20.0732 10.8154ZM20.0701 10.8082C20.0699 10.8061 20.0704 10.8036 20.0721 10.8012L20.4046 11.0235C20.4522 10.9523 20.4747 10.8675 20.4692 10.7824L20.0701 10.8082ZM20.0735 10.799L11.8129 22.8087L12.1425 23.0354L20.4031 11.0257L20.0735 10.799ZM11.8123 22.8096C11.814 22.8071 11.8165 22.8047 11.8199 22.8029L12.0087 23.1555C12.0628 23.1266 12.1088 23.0849 12.1431 23.0345L11.8123 22.8096ZM11.8199 22.8029C11.8233 22.8011 11.8273 22.8 11.8315 22.8L11.8326 23.2C11.8941 23.1998 11.9546 23.1845 12.0087 23.1555L11.8199 22.8029ZM14.4306 10.9272L12.0119 21.9082L12.4025 21.9942L14.8212 11.0132L14.4306 10.9272ZM12.372 22.0645L19.9243 11.0835L19.5947 10.8568L12.0424 21.8379L12.372 22.0645ZM19.7595 10.7702H14.6259V11.1702H19.7595V10.7702ZM20.0705 10.7702H14.4803V11.1702H20.0705V10.7702ZM14.4803 10.7702C14.4868 10.7702 14.4922 10.7728 14.4957 10.7763L14.2102 11.0565C14.2812 11.1288 14.3783 11.1702 14.4803 11.1702V10.7702ZM14.4957 10.7763C14.4989 10.7797 14.5001 10.7834 14.5001 10.7866H14.1001C14.1001 10.8871 14.1393 10.9843 14.2102 11.0565L14.4957 10.7763ZM14.5001 10.7866V7.12456H14.1001V10.7866H14.5001ZM14.5001 7.12456C14.5001 7.12771 14.499 7.13146 14.4957 7.13482L14.2102 6.85466C14.1393 6.92687 14.1001 7.02403 14.1001 7.12456H14.5001ZM14.4957 7.13482C14.4922 7.1383 14.4868 7.14096 14.4803 7.14096V6.74096C14.3783 6.74096 14.2812 6.78231 14.2102 6.85466L14.4957 7.13482ZM14.4803 7.14096H16.8299V6.74096H14.4803V7.14096ZM16.8272 7.14094C16.8246 7.14091 16.8222 7.14034 16.8201 7.13939L16.9851 6.77502C16.9372 6.75331 16.8853 6.74169 16.8326 6.74098L16.8272 7.14094ZM16.8201 7.13939C16.818 7.13844 16.8164 7.13719 16.8153 7.13592L17.1111 6.86673C17.0759 6.82798 17.0331 6.79671 16.9851 6.77502L16.8201 7.13939ZM16.8134 7.13386L20.054 10.7959L20.3536 10.5308L17.113 6.86878L16.8134 7.13386ZM20.0557 10.7978C20.0531 10.7949 20.0517 10.7917 20.0512 10.7888L20.446 10.7243C20.4341 10.6516 20.4016 10.5837 20.3519 10.5289L20.0557 10.7978ZM20.0512 10.7888C20.0508 10.7859 20.0511 10.7829 20.0524 10.7799L20.4193 10.9391C20.4487 10.8715 20.4579 10.7969 20.446 10.7243L20.0512 10.7888ZM20.0518 10.7813C20.0529 10.7788 20.0549 10.776 20.0582 10.7738L20.2807 11.1063C20.3427 11.0647 20.3909 11.006 20.4199 10.9377L20.0518 10.7813ZM20.0582 10.7738C20.0615 10.7716 20.0658 10.7702 20.0705 10.7702L20.0705 11.1702C20.1455 11.1702 20.2186 11.1478 20.2807 11.1063L20.0582 10.7738ZM14.6605 10.803H19.6657V10.403H14.6605V10.803ZM19.8155 10.4704L16.8982 7.17559L16.5987 7.44075L19.516 10.7356L19.8155 10.4704ZM16.7485 7.10817H14.6605V7.50817H16.7485V7.10817ZM14.4605 7.30817V10.603H14.8605V7.30817H14.4605ZM14.4803 10.7702H9.17888V11.1702H14.4803V10.7702ZM9.17888 10.7702C9.18538 10.7702 9.19082 10.7728 9.19423 10.7763L8.90873 11.0565C8.97973 11.1288 9.07682 11.1702 9.17888 11.1702V10.7702ZM9.19423 10.7763C9.19752 10.7797 9.19871 10.7834 9.19871 10.7866H8.79871C8.79871 10.8871 8.83787 10.9843 8.90873 11.0565L9.19423 10.7763ZM9.19871 10.7866V7.12456H8.79871V10.7866H9.19871ZM9.19871 7.12456C9.19871 7.12771 9.19753 7.13146 9.19423 7.13482L8.90873 6.85466C8.83787 6.92687 8.79871 7.02403 8.79871 7.12456H9.19871ZM9.19423 7.13482C9.19082 7.1383 9.18537 7.14096 9.17888 7.14096V6.74096C9.07683 6.74096 8.97973 6.78231 8.90873 6.85466L9.19423 7.13482ZM9.17888 7.14096H14.4803V6.74096H9.17888V7.14096ZM14.4803 7.14096C14.4738 7.14096 14.4684 7.1383 14.465 7.13482L14.7505 6.85466C14.6795 6.78231 14.5824 6.74096 14.4803 6.74096V7.14096ZM14.465 7.13482C14.4617 7.13146 14.4605 7.1277 14.4605 7.12456H14.8605C14.8605 7.02403 14.8213 6.92688 14.7505 6.85466L14.465 7.13482ZM14.4605 7.12456V10.7866H14.8605V7.12456H14.4605ZM14.4605 10.7866C14.4605 10.7834 14.4617 10.7797 14.465 10.7763L14.7505 11.0565C14.8213 10.9843 14.8605 10.8871 14.8605 10.7866H14.4605ZM14.465 10.7763C14.4684 10.7728 14.4738 10.7702 14.4803 10.7702V11.1702C14.5824 11.1702 14.6795 11.1288 14.7505 11.0565L14.465 10.7763ZM9.36152 10.803H14.2977V10.403H9.36152V10.803ZM14.4977 10.603V7.30817H14.0977V10.603H14.4977ZM14.2977 7.10817H9.36152V7.50817H14.2977V7.10817ZM9.16152 7.30817V10.603H9.56152V7.30817H9.16152ZM9.17888 10.7702H3.93176V11.1702H9.17888V10.7702ZM3.93201 10.7702C3.93658 10.7702 3.94077 10.7715 3.94407 10.7737L3.72643 11.1093C3.78742 11.1488 3.85855 11.1701 3.9315 11.1702L3.93201 10.7702ZM3.94407 10.7737C3.94733 10.7758 3.9494 10.7784 3.95054 10.7809L3.58718 10.9482C3.61736 11.0137 3.66549 11.0698 3.72643 11.1093L3.94407 10.7737ZM3.95084 10.7816C3.95174 10.7835 3.952 10.7855 3.95179 10.7873L3.55439 10.7417C3.54634 10.8119 3.55752 10.8831 3.58689 10.9475L3.95084 10.7816ZM3.95179 10.7873C3.95158 10.7891 3.95085 10.7912 3.94926 10.7933L3.63289 10.5485C3.58947 10.6046 3.56245 10.6715 3.55439 10.7417L3.95179 10.7873ZM3.94781 10.7951L6.85027 7.1331L6.53679 6.88464L3.63434 10.5467L3.94781 10.7951ZM6.84918 7.13446C6.84784 7.13613 6.84591 7.13776 6.84336 7.13899L6.66947 6.77876C6.61828 6.80347 6.57341 6.83925 6.53788 6.88328L6.84918 7.13446ZM6.84336 7.13899C6.8408 7.14023 6.83781 7.14095 6.83465 7.14096L6.83378 6.74096C6.7768 6.74108 6.72068 6.75405 6.66947 6.77876L6.84336 7.13899ZM6.83421 7.14096H9.17888V6.74096H6.83421V7.14096ZM9.17888 7.14096C9.17239 7.14096 9.16695 7.1383 9.16353 7.13482L9.44903 6.85466C9.37804 6.78231 9.28094 6.74096 9.17888 6.74096V7.14096ZM9.16353 7.13482C9.16024 7.13146 9.15905 7.12771 9.15905 7.12456H9.55905C9.55905 7.02403 9.5199 6.92687 9.44903 6.85466L9.16353 7.13482ZM9.15905 7.12456V10.7866H9.55905V7.12456H9.15905ZM9.15905 10.7866C9.15905 10.7834 9.16024 10.7797 9.16353 10.7763L9.44903 11.0565C9.5199 10.9843 9.55905 10.8871 9.55905 10.7866H9.15905ZM9.16353 10.7763C9.16695 10.7728 9.17239 10.7702 9.17888 10.7702V11.1702C9.28094 11.1702 9.37804 11.1288 9.44903 11.0565L9.16353 10.7763ZM4.30937 10.803H8.99871V10.403H4.30937V10.803ZM9.19871 10.603V7.30817H8.79871V10.603H9.19871ZM8.99871 7.10817H6.91813V7.50817H8.99871V7.10817ZM6.76133 7.18402L4.15257 10.4788L4.46617 10.7271L7.07493 7.43232L6.76133 7.18402ZM10.5562 6.01159C10.5596 6.01164 10.5625 6.01275 10.5646 6.01426L10.3303 6.33847C10.3945 6.38486 10.4715 6.41053 10.551 6.41156L10.5562 6.01159ZM10.5689 6.01746C10.5718 6.01962 10.5733 6.02216 10.5739 6.0243L10.192 6.14314C10.2157 6.21924 10.2623 6.28655 10.326 6.33527L10.5689 6.01746ZM10.5739 6.0243C10.5746 6.02642 10.5746 6.02858 10.5739 6.0307L10.1927 5.90955C10.1686 5.98547 10.1683 6.06707 10.192 6.14314L10.5739 6.0243ZM10.5735 6.03186L11.0968 4.41967L10.7163 4.29619L10.1931 5.90838L10.5735 6.03186ZM11.0249 4.19674L9.67243 3.20327L9.43563 3.52565L10.7881 4.51912L11.0249 4.19674ZM9.66906 3.20085C9.6735 3.20397 9.67615 3.20798 9.67739 3.21177L9.29722 3.33612C9.3225 3.41341 9.37199 3.48095 9.439 3.52807L9.66906 3.20085ZM9.67739 3.21177C9.67862 3.21552 9.67862 3.21946 9.67738 3.22321L9.2974 3.09826C9.27201 3.17547 9.27195 3.25888 9.29722 3.33612L9.67739 3.21177ZM9.67784 3.22181C9.67715 3.22396 9.67562 3.22649 9.67277 3.22863L9.43211 2.90913C9.36822 2.95725 9.32121 3.02399 9.29695 3.09966L9.67784 3.22181ZM9.67277 3.22863C9.66986 3.23082 9.66588 3.23235 9.66138 3.23243L9.654 2.8325C9.5736 2.83398 9.49605 2.86096 9.43211 2.90913L9.67277 3.22863ZM9.65769 3.23246H11.3212V2.83246H9.65769V3.23246ZM11.5118 3.09297L12.0227 1.48329L11.6414 1.36228L11.1305 2.97196L11.5118 3.09297ZM12.0234 1.4809C12.0223 1.48468 12.0198 1.48869 12.0155 1.49187L11.7778 1.17009C11.7121 1.21862 11.6643 1.28706 11.6407 1.36467L12.0234 1.4809ZM12.0155 1.49187C12.0111 1.49509 12.0053 1.49711 11.999 1.497L12.0057 1.09706C11.9236 1.09568 11.8436 1.12152 11.7778 1.17009L12.0155 1.49187ZM12.0057 1.497C11.9994 1.49711 11.9936 1.4951 11.9893 1.49187L12.2269 1.17009C12.1611 1.12151 12.0811 1.09568 11.999 1.09706L12.0057 1.497ZM11.9893 1.49187C11.985 1.48869 11.9824 1.48468 11.9813 1.4809L12.364 1.36467C12.3405 1.28706 12.2926 1.21862 12.2269 1.17009L11.9893 1.49187ZM11.982 1.48312L12.4929 3.09783L12.8742 2.97716L12.3633 1.36246L11.982 1.48312ZM12.6836 3.23749H14.3446V2.83749H12.6836V3.23749ZM14.3436 3.23749C14.3391 3.23747 14.335 3.23597 14.3321 3.23376L14.5705 2.9126C14.5055 2.86435 14.4268 2.83787 14.3455 2.8375L14.3436 3.23749ZM14.3321 3.23376C14.3292 3.2316 14.3276 3.22904 14.3269 3.22687L14.7078 3.10466C14.6832 3.02816 14.6354 2.96082 14.5705 2.9126L14.3321 3.23376ZM14.3273 3.22824C14.3261 3.22449 14.3261 3.22055 14.3273 3.2168L14.7075 3.34115C14.7328 3.2639 14.7327 3.1805 14.7073 3.10329L14.3273 3.22824ZM14.3273 3.2168C14.3286 3.21301 14.3312 3.209 14.3357 3.20588L14.5657 3.5331C14.6327 3.48598 14.6822 3.41844 14.7075 3.34115L14.3273 3.2168ZM14.3319 3.20861L12.9868 4.20209L13.2244 4.52384L14.5695 3.53037L14.3319 3.20861ZM12.9152 4.42408L13.431 6.03124L13.8119 5.909L13.296 4.30184L12.9152 4.42408ZM13.4308 6.0307C13.4301 6.02858 13.4301 6.02642 13.4308 6.0243L13.8127 6.14314C13.8364 6.06707 13.8362 5.98547 13.812 5.90955L13.4308 6.0307ZM13.4308 6.0243C13.4315 6.02216 13.433 6.01962 13.4358 6.01746L13.6787 6.33527C13.7424 6.28655 13.7891 6.21924 13.8127 6.14314L13.4308 6.0243ZM13.4411 6.01353C13.4437 6.0117 13.4472 6.01045 13.4511 6.01045V6.41045C13.531 6.41045 13.6086 6.38539 13.6734 6.3392L13.4411 6.01353ZM13.4511 6.01045C13.4551 6.01045 13.4586 6.0117 13.4611 6.01353L13.2289 6.3392C13.2937 6.38539 13.3712 6.41045 13.4511 6.41045V6.01045ZM13.4649 6.01631L12.1223 5.01026L11.8824 5.33037L13.2251 6.33642L13.4649 6.01631ZM11.8824 5.01026L10.5398 6.01631L10.7797 6.33642L12.1223 5.33037L11.8824 5.01026ZM10.5426 6.01426C10.5447 6.01275 10.5476 6.01164 10.551 6.01159L10.5562 6.41156C10.6357 6.41053 10.7127 6.38486 10.7769 6.33847L10.5426 6.01426ZM10.0958 3.56246L11.0831 4.29939L11.3223 3.97885L10.3351 3.24191L10.0958 3.56246ZM11.085 4.30084C11.0816 4.29836 11.0797 4.29532 11.0788 4.29261L11.4595 4.16963C11.4346 4.09275 11.3862 4.02525 11.3204 3.97739L11.085 4.30084ZM11.0788 4.29261C11.078 4.28995 11.078 4.28719 11.0788 4.28452L11.4599 4.40619C11.4844 4.32926 11.4843 4.24647 11.4595 4.16963L11.0788 4.29261ZM11.0779 4.28746L10.7151 5.48718L11.098 5.60296L11.4608 4.40325L11.0779 4.28746ZM11.028 5.70397L12.0152 4.94944L11.7723 4.63163L10.7851 5.38617L11.028 5.70397ZM12.0147 4.94986C12.0108 4.95278 12.0056 4.95469 11.9999 4.95469V4.55469C11.9177 4.55469 11.8381 4.58174 11.7729 4.63121L12.0147 4.94986ZM11.9999 4.95469C11.9942 4.95469 11.989 4.95278 11.9851 4.94986L12.2269 4.63121C12.1617 4.58174 12.0821 4.55469 11.9999 4.55469V4.95469ZM11.9859 4.95041L12.9731 5.69237L13.2134 5.37261L12.2262 4.63065L11.9859 4.95041ZM13.2836 5.47126L12.8986 4.27406L12.5178 4.39653L12.9029 5.59373L13.2836 5.47126ZM12.8988 4.27446C12.8996 4.27712 12.8996 4.27989 12.8987 4.28255L12.5181 4.15957C12.4933 4.23641 12.4931 4.31921 12.5177 4.39613L12.8988 4.27446ZM12.8987 4.28255C12.8979 4.28526 12.8959 4.2883 12.8925 4.29078L12.6572 3.96733C12.5914 4.01519 12.543 4.08269 12.5181 4.15957L12.8987 4.28255ZM12.8934 4.29018L13.8954 3.55325L13.6584 3.23101L12.6564 3.96794L12.8934 4.29018ZM13.7769 3.19213H12.5429V3.59213H13.7769V3.19213ZM12.5547 3.19248C12.5598 3.19278 12.5643 3.19456 12.5678 3.19714L12.329 3.51805C12.3876 3.56167 12.4578 3.58742 12.531 3.59177L12.5547 3.19248ZM12.5678 3.19714C12.5712 3.19969 12.5734 3.20279 12.5745 3.20572L12.2003 3.34714C12.2259 3.41501 12.2705 3.47447 12.329 3.51805L12.5678 3.19714ZM12.5778 3.21532L12.1928 2.0156L11.8119 2.13783L12.1969 3.33755L12.5778 3.21532ZM11.8117 2.01632L11.4316 3.21603L11.8129 3.33683L12.193 2.13712L11.8117 2.01632ZM11.4313 3.21719C11.4321 3.21451 11.4339 3.2115 11.4372 3.209L11.6779 3.52851C11.7424 3.47993 11.7895 3.41228 11.8133 3.33567L11.4313 3.21719ZM11.4372 3.209C11.4406 3.20646 11.4452 3.20475 11.4503 3.20471L11.4537 3.60469C11.5349 3.60401 11.6133 3.57713 11.6779 3.52851L11.4372 3.209ZM11.4524 3.2047L10.2159 3.20219L10.2151 3.60219L11.4516 3.6047L11.4524 3.2047ZM7.57903 3.78318C7.58258 3.78317 7.58599 3.7839 7.58904 3.78521L7.43067 4.15253C7.47783 4.17286 7.52867 4.18332 7.58012 4.18318L7.57903 3.78318ZM7.58904 3.78521C7.59207 3.78652 7.59455 3.78833 7.59644 3.79032L7.30602 4.06537C7.34117 4.10249 7.38353 4.1322 7.43067 4.15253L7.58904 3.78521ZM7.59398 3.78777L5.02471 1.16953L4.73921 1.44969L7.30848 4.06793L7.59398 3.78777ZM5.03228 1.17768C5.03424 1.17991 5.03483 1.18215 5.03483 1.18385H4.63483C4.63483 1.27835 4.66898 1.37013 4.73165 1.44154L5.03228 1.17768ZM5.03483 1.18385C5.03483 1.18555 5.03424 1.18779 5.03228 1.19003L4.73165 0.926165C4.66898 0.997571 4.63483 1.08935 4.63483 1.18385H5.03483ZM5.01848 1.20426C5.01548 1.20706 5.01085 1.20918 5.00537 1.20918V0.809183C4.9085 0.809183 4.81581 0.846215 4.74545 0.911934L5.01848 1.20426ZM5.00537 1.20918C4.99988 1.20918 4.99525 1.20706 4.99225 1.20426L5.26529 0.911934C5.19493 0.846214 5.10223 0.809183 5.00537 0.809183V1.20918ZM4.98622 1.19838L7.55549 3.80908L7.84059 3.5285L5.27132 0.917809L4.98622 1.19838ZM7.55103 3.8044C7.54804 3.80115 7.54693 3.79758 7.54693 3.79455H7.94693C7.94693 3.69805 7.91086 3.60453 7.84504 3.53318L7.55103 3.8044ZM7.54693 3.79455C7.54693 3.79152 7.54804 3.78794 7.55103 3.78469L7.84504 4.05591C7.91086 3.98456 7.94693 3.89104 7.94693 3.79455H7.54693ZM7.54154 3.79577C7.54405 3.79262 7.54737 3.78977 7.55144 3.78761L7.73897 4.14093C7.7838 4.11713 7.82309 4.08436 7.85454 4.04483L7.54154 3.79577ZM7.55144 3.78761C7.55553 3.78544 7.5602 3.78406 7.56513 3.7837L7.59401 4.18266C7.64478 4.17898 7.69413 4.16473 7.73897 4.14093L7.55144 3.78761ZM4.73635 6.88935H4.68945V7.28935H4.73635V6.88935ZM4.74248 6.89651L1.22053 5.92819L1.11449 6.31388L4.63643 7.2822L4.74248 6.89651ZM1.18183 5.92154C1.18535 5.9218 1.18859 5.92284 1.19131 5.92439L0.992303 6.27138C1.04151 6.2996 1.09646 6.31645 1.15319 6.32052L1.18183 5.92154ZM1.19131 5.92439C1.19401 5.92594 1.19601 5.92789 1.19738 5.92986L0.868833 6.15803C0.901016 6.20437 0.943115 6.24317 0.992303 6.27138L1.19131 5.92439ZM1.19738 5.92986C1.19873 5.93182 1.19949 5.93382 1.19981 5.93568L0.805605 6.00351C0.815138 6.05891 0.836659 6.1117 0.868833 6.15803L1.19738 5.92986ZM1.19981 5.93568C1.20013 5.93753 1.20005 5.93943 1.19954 5.94131L0.81339 5.83697C0.79872 5.89126 0.796072 5.94811 0.805605 6.00351L1.19981 5.93568ZM1.19954 5.94131C1.19903 5.9432 1.19804 5.94523 1.19641 5.94716L0.890901 5.68896C0.854452 5.73209 0.828062 5.78267 0.81339 5.83697L1.19954 5.94131ZM1.19641 5.94716C1.19476 5.94911 1.19246 5.95096 1.1895 5.95229L1.02473 5.5878C0.973013 5.61118 0.92736 5.64583 0.890901 5.68896L1.19641 5.94716ZM1.1895 5.95229C1.18652 5.95364 1.18312 5.95436 1.17958 5.95427L1.18969 5.5544C1.13282 5.55296 1.07647 5.56442 1.02473 5.5878L1.1895 5.95229ZM1.17958 5.95427C1.17604 5.95418 1.17272 5.95329 1.16988 5.95183L1.35272 5.59606C1.30225 5.57012 1.24655 5.55583 1.18969 5.5544L1.17958 5.95427ZM1.20862 5.96688L4.71822 6.92514L4.82358 6.53927L1.31398 5.58101L1.20862 5.96688ZM4.70852 6.92223C4.70354 6.92059 4.70008 6.91755 4.69813 6.91451L5.0345 6.69805C4.98741 6.62487 4.91661 6.56954 4.83329 6.54218L4.70852 6.92223ZM4.69813 6.91451C4.69622 6.91154 4.69562 6.90848 4.69588 6.90572L5.09402 6.94424C5.10237 6.858 5.08155 6.77116 5.0345 6.69805L4.69813 6.91451ZM4.69588 6.90572C4.69615 6.90295 4.69738 6.89973 4.7002 6.89682L4.98804 7.17457C5.04857 7.11184 5.08568 7.03049 5.09402 6.94424L4.69588 6.90572ZM4.7002 6.89682C4.70308 6.89383 4.70749 6.89137 4.71294 6.89073L4.75975 7.28798C4.84698 7.2777 4.92745 7.23736 4.98804 7.17457L4.7002 6.89682ZM16.4224 3.7832C16.4275 3.78313 16.4325 3.78416 16.4369 3.78612L16.2759 4.1523C16.3238 4.17332 16.3756 4.18388 16.4279 4.18316L16.4224 3.7832ZM16.4369 3.78612C16.4413 3.78806 16.445 3.79081 16.4479 3.79396L16.1507 4.06173C16.1855 4.10034 16.2281 4.13128 16.2759 4.1523L16.4369 3.78612ZM16.4445 3.79032C16.4481 3.79409 16.4494 3.79836 16.4494 3.80209H16.0494C16.0494 3.89965 16.0866 3.99409 16.1541 4.06537L16.4445 3.79032ZM16.4494 3.80209C16.4494 3.80582 16.4481 3.8101 16.4445 3.81386L16.1541 3.53881C16.0866 3.61009 16.0494 3.70453 16.0494 3.80209H16.4494ZM16.4424 3.81607L19.0092 1.18777L18.723 0.908297L16.1562 3.5366L16.4424 3.81607ZM19.0008 1.19585C18.9983 1.19817 18.9943 1.2 18.9895 1.2V0.8C18.8936 0.8 18.8018 0.83603 18.7314 0.900222L19.0008 1.19585ZM18.9895 1.2C18.9847 1.2 18.9807 1.19817 18.9782 1.19585L19.2476 0.900222C19.1772 0.836029 19.0853 0.8 18.9895 0.8V1.2ZM18.9626 1.17996C18.9606 1.17773 18.96 1.1755 18.96 1.17379H19.36C19.36 1.07929 19.3259 0.987509 19.2632 0.916104L18.9626 1.17996ZM18.96 1.17379C18.96 1.17208 18.9606 1.16985 18.9626 1.16762L19.2632 1.43148C19.3259 1.36007 19.36 1.2683 19.36 1.17379H18.96ZM18.9696 1.16002L16.4102 3.78832L16.6968 4.06738L19.2562 1.43908L18.9696 1.16002ZM16.4066 3.7921C16.409 3.78953 16.4121 3.78725 16.4159 3.78563L16.5742 4.15294C16.6222 4.13227 16.6651 4.10176 16.7004 4.06359L16.4066 3.7921ZM16.4159 3.78563C16.4196 3.784 16.4238 3.78314 16.4282 3.7832L16.4221 4.18316C16.4744 4.18395 16.5263 4.17362 16.5742 4.15294L16.4159 3.78563ZM19.2747 6.88944C19.2807 6.88926 19.286 6.89142 19.2896 6.89456L19.0276 7.19678C19.0992 7.25885 19.1915 7.29214 19.2868 7.28926L19.2747 6.88944ZM19.2896 6.89456C19.2932 6.8976 19.2947 6.90117 19.2951 6.90417L18.8984 6.95553C18.9105 7.04869 18.9561 7.1348 19.0276 7.19678L19.2896 6.89456ZM19.2951 6.90417C19.2955 6.90714 19.2949 6.91048 19.2927 6.91368L18.9614 6.68959C18.9085 6.76768 18.8864 6.86239 18.8984 6.95553L19.2951 6.90417ZM19.2927 6.91368C19.2905 6.91698 19.2864 6.92022 19.2808 6.92159L19.1869 6.53277C19.0944 6.55511 19.0142 6.61141 18.9614 6.68959L19.2927 6.91368ZM19.2861 6.92022L22.8056 5.96699L22.701 5.5809L19.1815 6.53413L19.2861 6.92022ZM22.8284 5.95932C22.8255 5.9605 22.8222 5.96109 22.8188 5.96094L22.8362 5.56132C22.7822 5.55897 22.7283 5.56829 22.6782 5.58857L22.8284 5.95932ZM22.8188 5.96094C22.8155 5.9608 22.8123 5.95993 22.8096 5.95855L22.9912 5.60217C22.9431 5.57765 22.8903 5.56368 22.8362 5.56132L22.8188 5.96094ZM22.8096 5.95855C22.8069 5.95718 22.8048 5.95539 22.8033 5.95352L23.1152 5.703C23.0815 5.66111 23.0393 5.62668 22.9912 5.60217L22.8096 5.95855ZM22.8033 5.95352C22.8018 5.95166 22.8009 5.94974 22.8004 5.94795L23.187 5.845C23.1732 5.79329 23.1488 5.74488 23.1152 5.703L22.8033 5.95352ZM22.8004 5.94795C22.8 5.94615 22.7999 5.94435 22.8002 5.94259L23.1955 6.00359C23.2036 5.95073 23.2007 5.89671 23.187 5.845L22.8004 5.94795ZM22.8002 5.94259C22.8004 5.94082 22.8011 5.93894 22.8023 5.93707L23.1394 6.15237C23.1683 6.10715 23.1873 6.05645 23.1955 6.00359L22.8002 5.94259ZM22.8023 5.93707C22.8035 5.9352 22.8052 5.93331 22.8076 5.93173L23.0273 6.266C23.0724 6.23638 23.1105 6.19759 23.1394 6.15237L22.8023 5.93707ZM22.8076 5.93173C22.8101 5.93015 22.813 5.92896 22.8163 5.92845L22.8779 6.32367C22.9314 6.31534 22.9823 6.29562 23.0273 6.266L22.8076 5.93173ZM22.7947 5.93305L19.2752 6.8888L19.38 7.27482L22.8995 6.31907L22.7947 5.93305ZM19.2656 6.89167C19.2702 6.89017 19.2751 6.88937 19.28 6.88935L19.2814 7.28935C19.3182 7.28923 19.3547 7.28334 19.3896 7.27194L19.2656 6.89167ZM18.2367 22.8H5.768V23.2H18.2367V22.8ZM5.768 22.8C5.77449 22.8 5.77993 22.8027 5.78335 22.8061L5.49785 23.0863C5.56885 23.1587 5.66595 23.2 5.768 23.2V22.8ZM5.78335 22.8061C5.78665 22.8095 5.78783 22.8133 5.78783 22.8164H5.38783C5.38783 22.9169 5.42699 23.0141 5.49785 23.0863L5.78335 22.8061ZM5.78783 22.8164C5.78783 22.8195 5.78665 22.8233 5.78335 22.8266L5.49785 22.5465C5.42699 22.6187 5.38783 22.7159 5.38783 22.8164H5.78783ZM5.78335 22.8266C5.77994 22.8301 5.77449 22.8328 5.768 22.8328V22.4328C5.66595 22.4328 5.56885 22.4741 5.49785 22.5465L5.78335 22.8266ZM5.768 22.8328H18.2367V22.4328H5.768V22.8328ZM18.2367 22.8328C18.2302 22.8328 18.2248 22.8301 18.2214 22.8266L18.5069 22.5465C18.4359 22.4741 18.3388 22.4328 18.2367 22.4328V22.8328ZM18.2214 22.8266C18.2181 22.8233 18.2169 22.8195 18.2169 22.8164H18.6169C18.6169 22.7159 18.5777 22.6187 18.5069 22.5465L18.2214 22.8266ZM18.2169 22.8164C18.2169 22.8133 18.2181 22.8095 18.2214 22.8061L18.5069 23.0863C18.5777 23.0141 18.6169 22.9169 18.6169 22.8164H18.2169ZM18.2214 22.8061C18.2248 22.8027 18.2302 22.8 18.2367 22.8V23.2C18.3388 23.2 18.4359 23.1587 18.5069 23.0863L18.2214 22.8061Z" fill="#0B1547" mask="url(#path-1-outside-1_2568_2775)"/>
</svg>
