<svg width="98" height="24" viewBox="0 0 98 24" fill="none" xmlns="http://www.w3.org/2000/svg">
<mask id="mask0_2527_2746" style="mask-type:luminance" maskUnits="userSpaceOnUse" x="3" y="7" width="18" height="10">
<path fill-rule="evenodd" clip-rule="evenodd" d="M3 9H5V7H3V9ZM5 13H3V11H5V13ZM5 17H3V15H5V17ZM21 13H7V11H21V13ZM7 17H21V15H7V17ZM7 9V7H21V9H7Z" fill="white"/>
</mask>
<g mask="url(#mask0_2527_2746)">
<rect width="24" height="24" fill="#0B1547"/>
</g>
<path d="M41.552 18L37.248 12.416L38.208 11.84L42.912 18H41.552ZM33.888 18V6.8H35.04V18H33.888ZM34.688 12.864V11.824H38.192V12.864H34.688ZM38.304 12.528L37.216 12.336L41.392 6.8H42.672L38.304 12.528ZM49.8164 18V16.144L49.7684 15.84V12.736C49.7684 12.0213 49.5657 11.472 49.1604 11.088C48.7657 10.704 48.1737 10.512 47.3844 10.512C46.8404 10.512 46.323 10.6027 45.8324 10.784C45.3417 10.9653 44.9257 11.2053 44.5844 11.504L44.0724 10.656C44.499 10.2933 45.011 10.016 45.6084 9.824C46.2057 9.62133 46.835 9.52 47.4964 9.52C48.5844 9.52 49.4217 9.792 50.0084 10.336C50.6057 10.8693 50.9044 11.6853 50.9044 12.784V18H49.8164ZM46.9204 18.08C46.291 18.08 45.7417 17.9787 45.2724 17.776C44.8137 17.5627 44.4617 17.2747 44.2164 16.912C43.971 16.5387 43.8484 16.112 43.8484 15.632C43.8484 15.1947 43.9497 14.8 44.1524 14.448C44.3657 14.0853 44.707 13.7973 45.1764 13.584C45.6564 13.36 46.2964 13.248 47.0964 13.248H49.9924V14.096H47.1284C46.3177 14.096 45.7524 14.24 45.4324 14.528C45.123 14.816 44.9684 15.1733 44.9684 15.6C44.9684 16.08 45.155 16.464 45.5284 16.752C45.9017 17.04 46.4244 17.184 47.0964 17.184C47.7364 17.184 48.2857 17.04 48.7444 16.752C49.2137 16.4533 49.555 16.0267 49.7684 15.472L50.0244 16.256C49.811 16.8107 49.4377 17.2533 48.9044 17.584C48.3817 17.9147 47.7204 18.08 46.9204 18.08ZM55.5285 18V10.288L55.8165 10.592H52.3445V9.6H59.8485V10.592H56.3765L56.6645 10.288V18H55.5285ZM66.707 18V16.144L66.659 15.84V12.736C66.659 12.0213 66.4563 11.472 66.051 11.088C65.6563 10.704 65.0643 10.512 64.275 10.512C63.731 10.512 63.2137 10.6027 62.723 10.784C62.2323 10.9653 61.8163 11.2053 61.475 11.504L60.963 10.656C61.3897 10.2933 61.9017 10.016 62.499 9.824C63.0963 9.62133 63.7257 9.52 64.387 9.52C65.475 9.52 66.3123 9.792 66.899 10.336C67.4963 10.8693 67.795 11.6853 67.795 12.784V18H66.707ZM63.811 18.08C63.1817 18.08 62.6323 17.9787 62.163 17.776C61.7043 17.5627 61.3523 17.2747 61.107 16.912C60.8617 16.5387 60.739 16.112 60.739 15.632C60.739 15.1947 60.8403 14.8 61.043 14.448C61.2563 14.0853 61.5977 13.7973 62.067 13.584C62.547 13.36 63.187 13.248 63.987 13.248H66.883V14.096H64.019C63.2083 14.096 62.643 14.24 62.323 14.528C62.0137 14.816 61.859 15.1733 61.859 15.6C61.859 16.08 62.0457 16.464 62.419 16.752C62.7923 17.04 63.315 17.184 63.987 17.184C64.627 17.184 65.1763 17.04 65.635 16.752C66.1043 16.4533 66.4457 16.0267 66.659 15.472L66.915 16.256C66.7017 16.8107 66.3283 17.2533 65.795 17.584C65.2723 17.9147 64.611 18.08 63.811 18.08ZM69.2831 17.984L69.3631 17.008C69.4378 17.0187 69.5071 17.0347 69.5711 17.056C69.6458 17.0667 69.7098 17.072 69.7631 17.072C70.1045 17.072 70.3765 16.944 70.5791 16.688C70.7925 16.432 70.9525 16.0907 71.0591 15.664C71.1658 15.2373 71.2405 14.7573 71.2831 14.224C71.3258 13.68 71.3631 13.136 71.3951 12.592L71.5391 9.6H77.6991V18H76.5631V10.256L76.8511 10.592H72.2751L72.5471 10.24L72.4191 12.672C72.3871 13.3973 72.3285 14.0907 72.2431 14.752C72.1685 15.4133 72.0458 15.9947 71.8751 16.496C71.7151 16.9973 71.4911 17.392 71.2031 17.68C70.9151 17.9573 70.5471 18.096 70.0991 18.096C69.9711 18.096 69.8378 18.0853 69.6991 18.064C69.5711 18.0427 69.4325 18.016 69.2831 17.984ZM84.3845 18.08C83.5738 18.08 82.8432 17.8987 82.1925 17.536C81.5525 17.1627 81.0458 16.656 80.6725 16.016C80.2992 15.3653 80.1125 14.624 80.1125 13.792C80.1125 12.9493 80.2992 12.208 80.6725 11.568C81.0458 10.928 81.5525 10.4267 82.1925 10.064C82.8325 9.70133 83.5632 9.52 84.3845 9.52C85.2165 9.52 85.9525 9.70133 86.5925 10.064C87.2432 10.4267 87.7498 10.928 88.1125 11.568C88.4858 12.208 88.6725 12.9493 88.6725 13.792C88.6725 14.624 88.4858 15.3653 88.1125 16.016C87.7498 16.656 87.2432 17.1627 86.5925 17.536C85.9418 17.8987 85.2058 18.08 84.3845 18.08ZM84.3845 17.072C84.9925 17.072 85.5312 16.9387 86.0005 16.672C86.4698 16.3947 86.8378 16.0107 87.1045 15.52C87.3818 15.0187 87.5205 14.4427 87.5205 13.792C87.5205 13.1307 87.3818 12.5547 87.1045 12.064C86.8378 11.5733 86.4698 11.1947 86.0005 10.928C85.5312 10.6507 84.9978 10.512 84.4005 10.512C83.8032 10.512 83.2698 10.6507 82.8005 10.928C82.3312 11.1947 81.9578 11.5733 81.6805 12.064C81.4032 12.5547 81.2645 13.1307 81.2645 13.792C81.2645 14.4427 81.4032 15.0187 81.6805 15.52C81.9578 16.0107 82.3312 16.3947 82.8005 16.672C83.2698 16.9387 83.7978 17.072 84.3845 17.072ZM91.1004 18V9.6H97.0524V10.592H91.9484L92.2364 10.304V18H91.1004Z" fill="#21211F"/>
</svg>
