<svg width="107" height="36" viewBox="0 0 107 36" fill="none" xmlns="http://www.w3.org/2000/svg">
<rect width="107" height="36" fill="#0B1547"/>
<path d="M33.5 18L18.5 18" stroke="white" stroke-width="2" stroke-linecap="round" stroke-linejoin="round"/>
<path d="M22.6667 22.1668L18.5 18.0002L22.6667 13.8335" stroke="white" stroke-width="2" stroke-linecap="round" stroke-linejoin="round"/>
<path d="M50.2831 12.8H51.4511V24H50.2831V12.8ZM43.2751 24H42.0911V12.8H43.2751V24ZM50.3951 18.832H43.1471V17.792H50.3951V18.832ZM60.1758 24V22.144L60.1278 21.84V18.736C60.1278 18.0213 59.9251 17.472 59.5198 17.088C59.1251 16.704 58.5331 16.512 57.7438 16.512C57.1998 16.512 56.6824 16.6027 56.1918 16.784C55.7011 16.9653 55.2851 17.2053 54.9438 17.504L54.4318 16.656C54.8584 16.2933 55.3704 16.016 55.9678 15.824C56.5651 15.6213 57.1944 15.52 57.8558 15.52C58.9438 15.52 59.7811 15.792 60.3678 16.336C60.9651 16.8693 61.2638 17.6853 61.2638 18.784V24H60.1758ZM57.2798 24.08C56.6504 24.08 56.1011 23.9787 55.6318 23.776C55.1731 23.5627 54.8211 23.2747 54.5758 22.912C54.3304 22.5387 54.2078 22.112 54.2078 21.632C54.2078 21.1947 54.3091 20.8 54.5118 20.448C54.7251 20.0853 55.0664 19.7973 55.5358 19.584C56.0158 19.36 56.6558 19.248 57.4557 19.248H60.3518V20.096H57.4878C56.6771 20.096 56.1118 20.24 55.7918 20.528C55.4824 20.816 55.3278 21.1733 55.3278 21.6C55.3278 22.08 55.5144 22.464 55.8878 22.752C56.2611 23.04 56.7838 23.184 57.4557 23.184C58.0958 23.184 58.6451 23.04 59.1038 22.752C59.5731 22.4533 59.9144 22.0267 60.1278 21.472L60.3838 22.256C60.1704 22.8107 59.7971 23.2533 59.2638 23.584C58.7411 23.9147 58.0798 24.08 57.2798 24.08ZM66.372 24.096C65.764 24.096 65.1613 24.0107 64.564 23.84C63.9667 23.6693 63.4387 23.408 62.98 23.056L63.348 22.208C63.7533 22.5067 64.2227 22.736 64.756 22.896C65.2893 23.0453 65.8173 23.12 66.34 23.12C66.8627 23.1093 67.316 23.0347 67.7 22.896C68.084 22.7573 68.3827 22.5653 68.596 22.32C68.8093 22.0747 68.916 21.7973 68.916 21.488C68.916 21.04 68.7133 20.6933 68.308 20.448C67.9027 20.192 67.348 20.064 66.644 20.064H65.204V19.232H66.564C66.98 19.232 67.348 19.1787 67.668 19.072C67.988 18.9653 68.2333 18.8107 68.404 18.608C68.5853 18.4053 68.676 18.1653 68.676 17.888C68.676 17.5893 68.5693 17.3333 68.356 17.12C68.1533 16.9067 67.8707 16.7467 67.508 16.64C67.1453 16.5333 66.7347 16.48 66.276 16.48C65.86 16.4907 65.428 16.5547 64.98 16.672C64.532 16.7787 64.0893 16.944 63.652 17.168L63.332 16.288C63.8227 16.032 64.308 15.84 64.788 15.712C65.2787 15.5733 65.7693 15.504 66.26 15.504C66.932 15.4827 67.5347 15.5627 68.068 15.744C68.612 15.9253 69.044 16.1867 69.364 16.528C69.684 16.8587 69.844 17.2587 69.844 17.728C69.844 18.144 69.716 18.5067 69.46 18.816C69.204 19.1253 68.8627 19.3653 68.436 19.536C68.0093 19.7067 67.524 19.792 66.98 19.792L67.028 19.488C67.988 19.488 68.7347 19.6747 69.268 20.048C69.812 20.4213 70.084 20.928 70.084 21.568C70.084 22.0693 69.9187 22.512 69.588 22.896C69.2573 23.2693 68.8093 23.5627 68.244 23.776C67.6893 23.9893 67.0653 24.096 66.372 24.096ZM77.8789 24V22.144L77.8309 21.84V18.736C77.8309 18.0213 77.6282 17.472 77.2229 17.088C76.8282 16.704 76.2362 16.512 75.4469 16.512C74.9029 16.512 74.3855 16.6027 73.8949 16.784C73.4042 16.9653 72.9882 17.2053 72.6469 17.504L72.1349 16.656C72.5615 16.2933 73.0735 16.016 73.6709 15.824C74.2682 15.6213 74.8975 15.52 75.5589 15.52C76.6469 15.52 77.4842 15.792 78.0709 16.336C78.6682 16.8693 78.9669 17.6853 78.9669 18.784V24H77.8789ZM74.9829 24.08C74.3535 24.08 73.8042 23.9787 73.3349 23.776C72.8762 23.5627 72.5242 23.2747 72.2789 22.912C72.0335 22.5387 71.9109 22.112 71.9109 21.632C71.9109 21.1947 72.0122 20.8 72.2149 20.448C72.4282 20.0853 72.7695 19.7973 73.2389 19.584C73.7189 19.36 74.3589 19.248 75.1589 19.248H78.0549V20.096H75.1909C74.3802 20.096 73.8149 20.24 73.4949 20.528C73.1855 20.816 73.0309 21.1733 73.0309 21.6C73.0309 22.08 73.2175 22.464 73.5909 22.752C73.9642 23.04 74.4869 23.184 75.1589 23.184C75.7989 23.184 76.3482 23.04 76.8069 22.752C77.2762 22.4533 77.6175 22.0267 77.8309 21.472L78.0869 22.256C77.8735 22.8107 77.5002 23.2533 76.9669 23.584C76.4442 23.9147 75.7829 24.08 74.9829 24.08ZM87.751 23.456V16.592H83.703L83.607 18.464C83.5857 19.0293 83.5483 19.584 83.495 20.128C83.4523 20.672 83.3723 21.1733 83.255 21.632C83.1483 22.08 82.9937 22.448 82.791 22.736C82.5883 23.0133 82.327 23.1733 82.007 23.216L80.871 23.008C81.2017 23.0187 81.4737 22.9013 81.687 22.656C81.9003 22.4 82.0657 22.0533 82.183 21.616C82.3003 21.1787 82.3857 20.6827 82.439 20.128C82.4923 19.5627 82.535 18.9867 82.567 18.4L82.679 15.6H88.887V23.456H87.751ZM80.519 26.032V23.008H90.199V26.032H89.127V24H81.591V26.032H80.519Z" fill="white"/>
</svg>
