<svg width="24" height="24" viewBox="0 0 24 24" fill="none" xmlns="http://www.w3.org/2000/svg">
<path fill-rule="evenodd" clip-rule="evenodd" d="M8.56588 0.480221C8.47757 0.52372 8.34707 0.635607 8.27588 0.728888C8.15355 0.889059 8.14548 0.932799 8.1305 1.51491C8.10846 2.37226 8.05669 2.3322 9.1855 2.3322H10.0555V3.1055C10.0555 3.84657 10.0515 3.87881 9.95882 3.87881C9.90565 3.87881 9.81865 3.92231 9.76549 3.97547C9.67805 4.0629 9.66882 4.13656 9.66882 4.74535V5.41856L9.40237 5.4739C8.53402 5.65413 7.76602 6.35982 7.4594 7.25923C7.3537 7.56937 7.35133 7.625 7.35012 9.84086C7.34891 11.9781 7.34413 12.1036 7.26428 12.0715C7.21774 12.0528 7.02929 12.018 6.84548 11.9942C6.43731 11.9413 6.30551 11.8608 6.23987 11.6244C6.16085 11.3398 6.17395 11.2252 6.28555 11.2252C6.33871 11.2252 6.42571 11.1817 6.47888 11.1286C6.56911 11.0383 6.57554 10.9675 6.57554 10.0653C6.57554 9.16306 6.56911 9.09221 6.47888 9.00197C6.38579 8.90888 6.31778 8.90531 4.64224 8.90531C2.9667 8.90531 2.89869 8.90888 2.8056 9.00197C2.71537 9.09221 2.70894 9.16306 2.70894 10.0653C2.70894 10.9675 2.71537 11.0383 2.8056 11.1286C2.85877 11.1817 2.94872 11.2252 3.00551 11.2252C3.1 11.2252 3.10623 11.2436 3.07907 11.4417C3.02465 11.8388 2.91058 11.9336 2.41136 11.9963C1.74567 12.0799 1.20362 12.4662 0.928369 13.0534L0.799805 13.3277V17.605V21.8824L0.928369 22.1567C1.10841 22.5406 1.40541 22.844 1.78366 23.0302L2.1027 23.1873L4.61701 23.1831C5.9999 23.1808 7.20749 23.1773 7.30053 23.1753C7.39357 23.1733 10.6136 23.1808 14.4562 23.1919C20.2895 23.2088 21.4574 23.2013 21.5324 23.1465C21.5935 23.1018 21.6788 22.8589 21.7997 22.385L21.9772 21.689L22.3277 21.6649C22.826 21.6305 22.8153 21.6562 22.8153 20.4957C22.8153 19.2843 22.8549 19.345 22.0638 19.345H21.5057L21.6601 19.1206C22.1573 18.3978 22.1776 17.2803 21.7067 16.5465C21.5225 16.2594 21.1747 15.9268 20.8812 15.7571C20.4145 15.4871 20.3249 15.4784 17.9974 15.4784H15.8554L15.8541 11.5273L15.8529 7.57618L15.7449 7.25923C15.436 6.35334 14.6738 5.6549 13.795 5.47245L13.5354 5.41856V4.74535C13.5354 4.13656 13.5262 4.0629 13.4388 3.97547C13.3856 3.92231 13.2986 3.87881 13.2454 3.87881C13.1507 3.87881 13.1488 3.84657 13.1488 2.23553C13.1488 0.65668 13.145 0.588484 13.0521 0.495591C12.9583 0.401827 12.8918 0.398976 10.8409 0.400039C8.98211 0.401005 8.70691 0.410672 8.56588 0.480221ZM10.0555 1.36556V1.55889H9.47549H8.8955V1.42356C8.8955 1.19993 8.96587 1.17223 9.53349 1.17223H10.0555V1.36556ZM12.3754 2.52552V3.87881H11.6021H10.8288V2.52552V1.17223H11.6021H12.3754V2.52552ZM12.7621 5.03877V5.42542H11.6021H10.4421V5.03877V4.65212H11.6021H12.7621V5.03877ZM13.7493 6.30888C14.2858 6.4865 14.7907 6.98784 14.9738 7.52476C15.0512 7.75173 15.0583 8.30314 15.0709 15.1038L15.0845 22.4382H11.6543H8.22421L8.35442 22.1603L8.48468 21.8824L8.49826 19.8404L8.51184 17.7983H10.5403C12.5043 17.7983 12.5719 17.7952 12.6654 17.7017C12.7602 17.6069 12.7621 17.5406 12.7621 14.3185C12.7621 11.0963 12.7602 11.03 12.6654 10.9352C12.5716 10.8414 12.5043 10.8386 10.3455 10.8386H8.12218L8.12315 9.52154C8.12368 8.79714 8.14582 8.05225 8.1724 7.86618C8.29284 7.02279 8.92151 6.37592 9.74263 6.25054C9.9014 6.22628 10.8143 6.21173 11.7713 6.21826C13.2282 6.22812 13.55 6.24286 13.7493 6.30888ZM17.5574 6.30192C17.2078 6.43623 16.8611 6.79002 16.7249 7.1514C16.5839 7.52553 16.6046 8.14635 16.7688 8.4637C17.2453 9.38471 18.5516 9.5877 19.2847 8.85466C20.057 8.08231 19.7785 6.6733 18.7796 6.29955C18.4229 6.16611 17.9083 6.16712 17.5574 6.30192ZM18.5504 7.11679C19.1791 7.50011 18.9103 8.46998 18.1753 8.46998C17.4404 8.46998 17.1716 7.50011 17.8003 7.11679C18.0071 6.99069 18.3436 6.99069 18.5504 7.11679ZM5.80222 10.0653V10.4519H4.64224H3.48226V10.0653V9.67861H4.64224H5.80222V10.0653ZM21.5345 9.77044C21.1147 9.96522 20.8813 10.3517 20.883 10.8491C20.8855 11.5362 21.3516 11.9985 22.042 11.9985C22.7377 11.9985 23.1998 11.5357 23.1998 10.8386C23.1998 10.3348 22.9465 9.93366 22.5147 9.75358C22.2666 9.65005 21.7757 9.65851 21.5345 9.77044ZM22.2836 10.5969C22.3373 10.6506 22.3803 10.758 22.3803 10.8386C22.3803 10.9191 22.3373 11.0265 22.2836 11.0802C22.2299 11.1339 22.1225 11.1769 22.042 11.1769C21.9614 11.1769 21.854 11.1339 21.8003 11.0802C21.7466 11.0265 21.7036 10.9191 21.7036 10.8386C21.7036 10.758 21.7466 10.6506 21.8003 10.5969C21.854 10.5432 21.9614 10.5003 22.042 10.5003C22.1225 10.5003 22.2299 10.5432 22.2836 10.5969ZM5.41556 11.4975C5.41556 11.8655 5.49541 12.1065 5.69434 12.3389C5.91788 12.6001 6.16326 12.7162 6.66206 12.7969C7.17196 12.8795 7.40894 13.0275 7.58787 13.3751L7.71136 13.6149L7.72513 17.4266C7.73407 19.9085 7.72141 21.3338 7.68879 21.512C7.62329 21.8699 7.43344 22.1355 7.13233 22.2905L6.89256 22.414L4.82692 22.4289C2.58197 22.4451 2.32059 22.4247 2.01078 22.2081C1.69632 21.9883 1.58888 21.7149 1.56003 21.0611L1.53547 20.5049H3.37888C5.1578 20.5049 5.22561 20.5015 5.3189 20.4083C5.41343 20.3137 5.41556 20.2472 5.41556 17.4117C5.41556 14.5762 5.41343 14.5097 5.3189 14.4151C5.22561 14.3218 5.1578 14.3185 3.37849 14.3185H1.5348L1.56612 13.9439C1.62697 13.2169 1.9071 12.9127 2.62242 12.7969C2.85186 12.7598 3.12286 12.6866 3.22465 12.6342C3.6303 12.4256 3.86612 12.0198 3.86786 11.5273L3.86892 11.2252H4.64224H5.41556V11.4975ZM11.9888 14.3185V17.025H10.2509H8.5131L8.49889 15.1522L8.48468 13.2793L8.30343 12.9514C8.12644 12.6312 8.12218 12.6117 8.12218 12.1177V11.6119H10.0555H11.9888V14.3185ZM17.5574 11.7151C17.2078 11.8494 16.8611 12.2032 16.7249 12.5645C16.5839 12.9387 16.6046 13.5595 16.7688 13.8769C17.0382 14.3976 17.5604 14.7051 18.1753 14.7051C19.0855 14.7051 19.722 14.0687 19.722 13.1585C19.722 12.2405 19.0825 11.6077 18.1614 11.6144C17.9324 11.616 17.7252 11.6506 17.5574 11.7151ZM18.5504 12.5299C19.1791 12.9133 18.9103 13.8831 18.1753 13.8831C17.763 13.8831 17.4507 13.5709 17.4507 13.1585C17.4507 12.7461 17.763 12.4339 18.1753 12.4339C18.3073 12.4339 18.4548 12.4717 18.5504 12.5299ZM4.64224 17.4117V19.7316H3.0956H1.54896V17.4117V15.0918H3.0956H4.64224V17.4117ZM19.9091 16.3024C20.443 16.389 20.8072 16.6372 21.0537 17.0821C21.1833 17.3161 21.1961 17.3804 21.1961 17.7983C21.1961 18.2171 21.1835 18.2803 21.0525 18.5167C20.9078 18.7781 20.6466 19.0267 20.3688 19.1677C20.0836 19.3124 19.6089 19.3442 17.7283 19.3446L15.8554 19.345V17.7983V16.2517L17.7283 16.2521C18.7848 16.2523 19.7354 16.2742 19.9091 16.3024ZM18.9773 16.7798C18.7328 16.9741 18.4403 17.025 17.5688 17.025C16.8865 17.025 16.8137 17.0334 16.7254 17.1217C16.5924 17.2547 16.5942 17.5705 16.7287 17.705C16.8247 17.801 16.8708 17.8044 17.8766 17.7896L18.9245 17.7742L19.2297 17.6087C19.6049 17.4053 19.722 17.2649 19.722 17.0185C19.722 16.6313 19.3246 16.5039 18.9773 16.7798ZM13.6321 17.1217C13.5515 17.2023 13.5354 17.2828 13.5354 17.605C13.5354 18.0713 13.6112 18.185 13.9221 18.185C14.233 18.185 14.3087 18.0713 14.3087 17.605C14.3087 17.1388 14.233 17.025 13.9221 17.025C13.7932 17.025 13.6965 17.0573 13.6321 17.1217ZM13.6321 19.055C13.5435 19.1436 13.5354 19.2161 13.5354 19.9249C13.5354 20.6338 13.5435 20.7063 13.6321 20.7949C13.6965 20.8593 13.7932 20.8916 13.9221 20.8916C14.051 20.8916 14.1477 20.8593 14.2121 20.7949C14.3007 20.7063 14.3087 20.6338 14.3087 19.9249C14.3087 19.2161 14.3007 19.1436 14.2121 19.055C14.1477 18.9905 14.051 18.9583 13.9221 18.9583C13.7932 18.9583 13.6965 18.9905 13.6321 19.055ZM22.042 20.5049V20.8916H18.9487H15.8554V20.5049V20.1183H18.9487H22.042V20.5049ZM21.1225 21.7011C21.1219 21.7211 21.0825 21.8896 21.0349 22.0757L20.9483 22.414L18.4018 22.4265L15.8554 22.4391V22.052V21.6649H18.4895C19.9383 21.6649 21.1231 21.6812 21.1225 21.7011Z" fill="#0B1547"/>
</svg>
