<svg width="24" height="24" viewBox="0 0 24 24" fill="none" xmlns="http://www.w3.org/2000/svg">
<g clip-path="url(#clip0_2568_2767)">
<path fill-rule="evenodd" clip-rule="evenodd" d="M2.29472 1.2916L2.18211 1.38297L2.16832 2.96759L2.15454 4.55216L2.29582 4.69384C2.42755 4.82591 2.46156 4.83552 2.79849 4.83552H3.15989V5.71666V6.59775L3.00488 6.63123C2.91964 6.6496 2.71812 6.72422 2.55715 6.79697C1.81136 7.13405 1.14957 7.77062 0.798471 8.48841C0.388708 9.32625 0.420569 8.78205 0.404829 15.2106C0.392619 20.211 0.399916 20.953 0.463448 21.1723C0.557173 21.4956 0.901877 21.8865 1.22722 22.0384L1.46665 22.1502L7.45861 22.1507L13.4505 22.1512L13.712 22.2671C14.0407 22.4129 14.653 22.5974 15.1795 22.7091C15.7934 22.8395 17.2272 22.8279 17.8743 22.6873C20.8144 22.0486 22.9274 19.9012 23.5088 16.9613C23.6398 16.2988 23.6276 14.926 23.4847 14.2587C23.1689 12.7836 22.5524 11.6452 21.5031 10.5991C20.4915 9.59082 19.4477 9.0117 18.0413 8.67845C17.2471 8.49032 15.6719 8.46989 15.0841 8.64013C15.0354 8.65424 14.9632 8.56546 14.8582 8.36256C14.6629 7.98501 14.3511 7.60249 13.9994 7.30869C13.6979 7.0569 12.9839 6.67519 12.7222 6.62597L12.5562 6.59469V5.71513V4.83552H12.9176C13.2545 4.83552 13.2885 4.82591 13.4202 4.69384L13.5615 4.55216L13.5477 2.97682C13.5348 1.50566 13.5279 1.39478 13.4431 1.30084L13.3522 1.2002H7.87977C2.56373 1.2002 2.40409 1.20283 2.29472 1.2916ZM12.7469 2.99394V4.02236H7.85802H2.9691V2.99394V1.96553H7.85802H12.7469V2.99394ZM11.7453 5.64869V6.46185H7.85802H3.97074V5.64869V4.83552H7.85802H11.7453V5.64869ZM12.522 7.42589C13.1646 7.64568 13.6896 8.05241 14.0552 8.61373L14.2262 8.87624L13.9792 8.96042C13.0049 9.29253 11.8439 10.1009 11.0936 10.9696L10.8152 11.292L6.00977 11.2925L1.20432 11.293L1.20513 10.5875C1.20613 9.75383 1.27687 9.36256 1.51354 8.88226C1.90585 8.08594 2.72256 7.47654 3.5967 7.32783C3.73788 7.30377 5.70146 7.28769 8.00111 7.29171L12.1507 7.29894L12.522 7.42589ZM17.4984 9.40518C20.6564 9.95172 22.9432 12.759 22.7964 15.9089C22.5995 20.1336 18.4827 23.0075 14.5141 21.6909C11.9152 20.8287 10.1681 18.421 10.1623 15.6937C10.1596 14.3839 10.5029 13.2347 11.2269 12.1301C11.5446 11.6454 12.4208 10.7595 12.8992 10.4392C13.731 9.88251 14.6556 9.5218 15.6564 9.36371C15.9794 9.31272 17.1113 9.33816 17.4984 9.40518ZM10.0726 12.4954C9.81211 13.0151 9.52937 13.8862 9.43039 14.4739C9.34902 14.9575 9.31764 16.2483 9.38227 16.4525L9.41461 16.5547H5.30944H1.20432V14.3304V12.1062H5.73604H10.2678L10.0726 12.4954ZM12.9047 12.4422C12.7655 12.4975 12.6821 12.6334 12.4818 13.1314C12.0144 14.2942 11.849 15.6042 12.0378 16.6503C12.2642 17.9048 13.0962 19.0941 14.124 19.6324C14.7933 19.9828 14.9617 20.0123 16.3977 20.031C17.5629 20.0461 17.7243 20.0384 18.0671 19.9521C18.5443 19.8319 19.1268 19.541 19.505 19.2341C20.1346 18.7232 20.7316 17.7871 20.9544 16.9613C21.0841 16.4808 21.1338 15.2747 21.0486 14.6785C20.9242 13.8078 20.6347 12.8823 20.4385 12.7275C20.2928 12.6126 20.1503 12.6094 19.5641 12.7079C18.6889 12.855 17.7259 13.2337 16.9348 13.7418L16.5676 13.9777L16.2194 13.7181C16.0278 13.5752 15.7188 13.3689 15.5327 13.2596C14.7209 12.7826 13.2219 12.3164 12.9047 12.4422ZM13.9686 13.4679C14.9233 13.7883 15.5719 14.1712 16.1573 14.7599C16.6098 15.215 16.8459 15.6025 17.0467 16.2198C17.2471 16.8357 17.2566 17.4529 17.074 17.9897C16.959 18.3277 16.7384 18.777 16.6649 18.8225C16.6466 18.8338 16.2268 18.0538 15.732 17.089C15.2372 16.1243 14.814 15.3146 14.7915 15.2897C14.7393 15.2319 14.0825 15.5458 14.0825 15.6286C14.0825 15.6615 14.4897 16.4807 14.9874 17.4489L15.8923 19.2094L15.7089 19.2238C15.2267 19.2617 14.4293 18.9347 13.9641 18.5083C12.7682 17.4122 12.4752 15.747 13.1299 13.7671C13.256 13.3856 13.3008 13.302 13.3789 13.302C13.4313 13.302 13.6966 13.3767 13.9686 13.4679ZM20.0449 13.888C20.3979 15.1993 20.35 16.5217 19.9182 17.3841C19.5706 18.0784 19.0157 18.6511 18.4083 18.9422C18.0457 19.116 17.4975 19.2779 17.4461 19.2264C17.4339 19.2142 17.5097 19.04 17.6144 18.8395C17.9037 18.2859 18.0075 17.839 18.0061 17.1526C18.0052 16.7245 17.9796 16.484 17.9054 16.2063C17.7928 15.7848 17.5024 15.1357 17.2846 14.8181L17.1383 14.6049L17.3922 14.4358C17.9316 14.0767 18.5706 13.7941 19.2528 13.6131C19.9404 13.4306 19.9199 13.4235 20.0449 13.888ZM9.68505 17.8581C9.77061 18.1278 9.92577 18.5288 10.0298 18.7493C10.1339 18.9697 10.219 19.158 10.219 19.1678C10.219 19.1775 9.00632 19.1855 7.52415 19.1855H4.82928V19.5682V19.9508L7.7984 19.952L10.7675 19.9531L10.9106 20.1484C10.9893 20.2558 11.2969 20.5786 11.5942 20.8658L12.1347 21.3879L6.89607 21.3749L1.65744 21.3619L1.49704 21.2472C1.21067 21.0423 1.20432 20.9956 1.20432 19.0914V17.3678H5.36692H9.52946L9.68505 17.8581Z" fill="#0B1547"/>
</g>
<defs>
<clipPath id="clip0_2568_2767">
<rect width="24" height="24" fill="white"/>
</clipPath>
</defs>
</svg>
