<svg width="17" height="16" viewBox="0 0 17 16" fill="none" xmlns="http://www.w3.org/2000/svg">
<path d="M12.083 1C13.1396 1 13.9712 1.34324 14.6475 2.01953C15.3236 2.69573 15.6669 3.52668 15.667 4.58301C15.667 5.1071 15.5786 5.62008 15.4004 6.12598C15.2288 6.61302 14.9092 7.19374 14.4053 7.87207C13.9021 8.54938 13.2089 9.33506 12.3135 10.2305C11.4136 11.1303 10.2683 12.2076 8.87402 13.4639L8.33301 13.9482L7.79297 13.4639H7.79199C6.3978 12.2077 5.25236 11.1303 4.35254 10.2305C3.45721 9.33513 2.76386 8.54934 2.26074 7.87207C1.75698 7.19387 1.43717 6.61294 1.26562 6.12598C1.08746 5.62015 1 5.10703 1 4.58301C1.00007 3.5266 1.34331 2.69576 2.01953 2.01953C2.69576 1.34331 3.5266 1.00007 4.58301 1C5.15899 1 5.70191 1.12097 6.22168 1.36426C6.74298 1.60827 7.19084 1.94992 7.57129 2.39746L8.33301 3.29395L9.0957 2.39746C9.47601 1.95013 9.92329 1.60823 10.4443 1.36426C10.964 1.12099 11.5071 1.00005 12.083 1Z" fill="white" stroke="white" stroke-width="2"/>
</svg>
