<svg width="199" height="73" viewBox="0 0 199 73" fill="none" xmlns="http://www.w3.org/2000/svg">
<path d="M12.8293 59.2447C12.1701 59.2884 11.5085 59.2148 10.8746 59.027C10.6466 58.9429 10.4491 58.7912 10.3077 58.5916H10.3468L9.18051 56.2891C8.72441 55.3655 8.17059 54.3099 7.53205 53.0432C6.89352 51.7765 6.22893 50.5164 5.57737 49.1771C4.92581 47.8379 4.22864 46.5382 3.57707 45.2187C2.92551 43.8992 2.28047 42.7447 1.75922 41.6957L0.488671 39.1623C0.302856 38.8286 0.139592 38.4826 0 38.1265C0 38.054 0.117281 37.9748 0.345328 37.9022C0.573374 37.8297 0.866577 37.7571 1.21842 37.6845C1.58464 37.6106 1.95434 37.5555 2.32608 37.5196C2.7105 37.5196 3.07537 37.4668 3.41418 37.4668C3.753 37.4668 4.11135 37.4668 4.48926 37.5064C4.86717 37.546 5.20598 37.5658 5.52524 37.6119C5.84451 37.6581 6.10513 37.7175 6.32015 37.7769C6.47149 37.7999 6.61236 37.8689 6.72412 37.9748L15.6375 54.8707L17.527 51.0376C16.8038 49.5796 16.048 48.0952 15.2726 46.5844C14.4973 45.0736 13.8066 43.7079 13.1876 42.4676L11.663 39.3998C11.4436 38.9871 11.2478 38.562 11.0766 38.1265C11.0766 38.054 11.1873 37.9748 11.4154 37.9022C11.6434 37.8297 11.9366 37.7571 12.2885 37.6845C12.6403 37.6119 13.0117 37.5592 13.3961 37.5196C13.7805 37.48 14.1519 37.4668 14.4907 37.4668C14.8295 37.4668 15.1879 37.4668 15.5593 37.5064C15.9307 37.546 16.2825 37.5658 16.5953 37.6119C16.908 37.6581 17.1752 37.7175 17.3967 37.7769C17.5462 37.7996 17.6851 37.8687 17.7942 37.9748L21.052 44.1433C21.5341 43.2197 22.0032 42.3093 22.4463 41.4054C22.8894 40.5016 23.3259 39.6307 23.7494 38.7665C23.8314 38.6851 23.8938 38.5858 23.9319 38.4762C23.984 38.3508 24.0361 38.2321 24.0948 38.1133C24.1576 37.9913 24.239 37.88 24.3358 37.7835C24.4594 37.688 24.6053 37.6267 24.7593 37.6053C25.3197 37.6053 25.6259 37.6515 25.6846 37.7505C25.7535 37.8726 25.7853 38.0126 25.7758 38.1529C25.6935 38.3966 25.5911 38.6327 25.4696 38.8588C25.2611 39.2877 24.9874 39.8485 24.6356 40.5412C24.2837 41.2339 23.8732 42.0388 23.3976 42.9624C22.9219 43.886 22.4202 44.8625 21.912 45.8587L26.6749 54.8707L28.6296 51.0178C29.2812 49.6983 29.9979 48.2997 30.7016 46.9142L32.7931 42.7777C33.4838 41.3988 34.1418 40.0728 34.7478 38.7797C34.8254 38.6949 34.8872 38.5965 34.9302 38.4894C34.9779 38.3655 35.0322 38.2443 35.0931 38.1265C35.1517 38.0035 35.231 37.8919 35.3277 37.7967C35.4623 37.6794 35.6274 37.6038 35.8033 37.579C36.3571 37.579 36.6699 37.6251 36.7285 37.7241C36.7945 37.8474 36.826 37.9865 36.8198 38.1265C36.6913 38.4649 36.5389 38.7934 36.3637 39.1095L35.1843 41.478C34.6957 42.4544 34.1484 43.5562 33.5294 44.7767C32.9104 45.9972 32.2784 47.2639 31.6203 48.5504C30.9622 49.8369 30.3172 51.097 29.6656 52.3241C29.014 53.5512 28.4732 54.653 27.9911 55.6228C27.75 56.0846 27.4829 56.5794 27.1897 57.1006C26.8965 57.6218 26.6489 58.1166 26.4273 58.5784C26.2656 58.7986 26.0365 58.9586 25.7758 59.0336C25.1386 59.2033 24.4789 59.2701 23.8211 59.2315C23.162 59.2747 22.5005 59.201 21.8664 59.0138C21.6401 58.9301 21.4445 58.7781 21.3061 58.5784L20.1984 56.2891L18.4262 52.7793L16.9732 55.6228C16.7256 56.0846 16.465 56.5794 16.1718 57.1006C15.8786 57.6218 15.6245 58.1166 15.4094 58.5784C15.2463 58.7972 15.0178 58.9569 14.7579 59.0336C14.1299 59.2058 13.4791 59.277 12.8293 59.2447Z" fill="#0B1547"/>
<path d="M43.1723 48.4843C43.1754 49.8252 43.3707 51.1586 43.7522 52.4427C44.0769 53.5204 44.5936 54.5288 45.2768 55.4181C45.9068 56.2212 46.7089 56.8687 47.6224 57.3116C48.5722 57.7612 49.6104 57.9867 50.6587 57.9713C51.3088 57.9706 51.9542 57.8591 52.5678 57.6415C53.1726 57.4267 53.7552 57.1527 54.3075 56.8234C54.8362 56.5043 55.3473 56.1564 55.8386 55.781L57.0896 54.798L57.4871 54.4681C57.6257 54.36 57.7794 54.2733 57.9432 54.2108C58.1687 54.1267 58.4024 54.067 58.6403 54.0327C59.0065 53.9731 59.3772 53.9466 59.748 53.9535C60.3881 53.9457 61.0275 54.001 61.6571 54.1185C62.1783 54.2306 62.465 54.356 62.5106 54.5011C62.465 54.4285 62.3347 54.5011 62.1262 54.6858L61.4225 55.3456C60.7545 56.0205 60.0161 56.62 59.2202 57.1335C58.4382 57.6331 57.6033 58.0425 56.7313 58.354C55.7904 58.6955 54.8162 58.9343 53.8253 59.0665C52.6804 59.2182 51.5267 59.2909 50.372 59.2842C48.5394 59.3227 46.7122 59.0689 44.9575 58.5321C43.4616 58.0678 42.0726 57.3051 40.8722 56.289C39.7503 55.3411 38.8586 54.1448 38.266 52.7924C37.6589 51.3637 37.3548 49.8218 37.3734 48.2666C37.3646 46.7428 37.7083 45.238 38.3768 43.8727C39.0252 42.524 39.9543 41.3334 41.1003 40.3827C42.3374 39.3702 43.7491 38.5985 45.2638 38.1066C46.9583 37.544 48.7322 37.2654 50.5154 37.2819C53.6904 37.2849 56.7757 38.3494 59.2919 40.3101C60.4227 41.1874 61.3668 42.287 62.0676 43.5429C62.7349 44.7527 63.0848 46.1155 63.084 47.5013C63.084 48.1346 62.0198 48.4513 59.8913 48.4513L43.1723 48.4843ZM57.4154 47.1648C57.2843 46.0025 57.0039 44.8626 56.5814 43.7738C56.2088 42.7922 55.6878 41.8753 55.0372 41.0556C54.4516 40.3169 53.7218 39.7083 52.8936 39.2678C52.0913 38.8351 51.1963 38.6086 50.2873 38.608C49.3986 38.605 48.5239 38.8321 47.7462 39.2678C46.9222 39.7289 46.196 40.3499 45.6091 41.0952C44.9499 41.9087 44.4161 42.8184 44.0258 43.7936C43.5931 44.862 43.306 45.985 43.1723 47.1318L57.4154 47.1648Z" fill="#0B1547"/>
<path d="M67.1564 0.765466C67.1564 0.574142 67.4236 0.396013 67.9579 0.237676C68.6451 0.0600953 69.3534 -0.0198389 70.0624 0.000169981C70.8141 -0.0540845 71.5687 0.051538 72.2777 0.310247C72.6687 0.514766 72.8641 0.719284 72.8641 0.910608V58.222C72.8641 58.42 72.5644 58.5915 71.9715 58.7366C71.2982 58.8906 70.6093 58.9637 69.9191 58.9544C69.3587 58.9544 68.9026 58.9544 68.5378 58.9016C68.2498 58.8768 67.9643 58.8283 67.6842 58.7564C67.5279 58.7206 67.384 58.6432 67.2672 58.5321C67.1927 58.4467 67.1531 58.3359 67.1564 58.222V0.765466Z" fill="#0B1547"/>
<path d="M80.09 0.765708C80.09 0.574384 80.3572 0.396255 80.8915 0.237918C81.581 0.0608187 82.2914 -0.0191033 83.0025 0.000412193C83.7542 -0.0532573 84.5087 0.0523485 85.2178 0.310489C85.6022 0.515008 85.7977 0.719526 85.7977 0.91085V58.2223C85.7977 58.4202 85.5045 58.5917 84.9051 58.7369C84.2318 58.8909 83.5429 58.9639 82.8527 58.9546C82.2988 58.9546 81.8362 58.9546 81.4713 58.9018C81.1836 58.8759 80.8982 58.8273 80.6178 58.7567C80.4622 58.7191 80.3186 58.6419 80.2008 58.5324C80.1263 58.447 80.0867 58.3361 80.09 58.2223V0.765708Z" fill="#0B1547"/>
<path d="M95.2846 58.9542C94.5284 58.9931 93.7704 58.9309 93.0302 58.7695C92.6653 58.6507 92.4829 58.466 92.4829 58.2219V38.1263C92.4829 37.9019 92.7631 37.7238 93.3234 37.5787C94.0125 37.4129 94.7199 37.3375 95.428 37.3544C96.4965 37.3544 97.2263 37.5919 97.6302 38.0669C98.0164 38.5369 98.2446 39.1192 98.2818 39.7294C99.4704 39.009 100.739 38.4332 102.061 38.0141C103.539 37.5592 105.077 37.3367 106.622 37.3544C108.072 37.3134 109.518 37.5369 110.89 38.0141C111.917 38.386 112.844 38.9986 113.594 39.802C114.271 40.5524 114.758 41.458 115.014 42.4409C115.285 43.494 115.419 44.5787 115.411 45.6671V58.2021C115.411 58.4264 115.144 58.5979 114.616 58.7365C113.923 58.8845 113.214 58.9509 112.505 58.9344C110.59 58.9344 109.632 58.6903 109.632 58.2021V45.3438C109.637 44.4488 109.589 43.5544 109.489 42.6653C109.414 41.9438 109.236 41.2371 108.961 40.5673C108.743 40.0316 108.393 39.5615 107.944 39.2016C107.475 38.8597 106.907 38.6857 106.329 38.7068C105.602 38.7264 104.888 38.9065 104.237 39.2346C103.455 39.6164 102.713 40.0761 102.022 40.6069C101.271 41.1706 100.566 41.7926 99.9107 42.4673C99.2867 43.0918 98.6993 43.7527 98.1515 44.4465V58.2219C98.1515 58.4462 97.8844 58.6177 97.3501 58.7563C96.6713 58.9016 95.9783 58.968 95.2846 58.9542Z" fill="#0B1547"/>
<path d="M121.611 0.78169C121.611 0.563976 121.885 0.379249 122.445 0.234107C123.135 0.074121 123.842 0.00099675 124.55 0.0163936C125.302 -0.0437516 126.058 0.062042 126.765 0.32647C127.13 0.530989 127.312 0.735508 127.312 0.926832V48.6853C128.445 47.8896 129.532 47.0306 130.57 46.1123C131.658 45.1491 132.753 44.1331 133.828 43.1567C134.903 42.1802 136.011 41.1774 137.086 40.201C138.12 39.2787 139.208 38.4195 140.344 37.628L140.995 37.2652C141.504 37.3114 141.999 37.3708 142.481 37.4301C142.963 37.4895 143.393 37.5555 143.784 37.628C144.079 37.6843 144.37 37.757 144.657 37.8458C144.872 37.9183 144.983 37.9909 144.983 38.0701C144.708 38.2002 144.446 38.357 144.201 38.5385C143.68 38.8816 143.009 39.3302 142.181 39.858L139.366 41.758C138.311 42.4639 137.255 43.1764 136.187 43.9088L133.118 45.9869C132.134 46.6467 131.294 47.214 130.59 47.7022L129.248 48.6127C129.801 48.6127 130.388 48.5731 131.007 48.5599H132.805C134.466 48.5343 136.125 48.6379 137.77 48.87C138.787 48.9947 139.768 49.3245 140.656 49.8398C141.284 50.2128 141.76 50.7998 141.999 51.4957C142.235 52.2687 142.347 53.075 142.331 53.884C142.331 54.2534 142.331 54.6361 142.331 55.0385C142.331 55.441 142.331 55.8566 142.272 56.292C142.214 56.7275 142.201 57.4136 142.201 58.0074C142.201 58.6011 142.168 59.2477 142.168 59.881C142.152 60.6949 142.218 61.5083 142.364 62.3088C142.5 62.929 142.722 63.2655 143.015 63.3116C142.937 63.3116 142.924 63.2193 142.956 63.1137C143.012 62.9701 143.087 62.8347 143.178 62.7113C143.282 62.5529 143.406 62.3814 143.536 62.1967C143.667 62.012 143.81 61.8404 143.96 61.6689H143.921C144.013 61.5544 144.123 61.4563 144.247 61.3786C144.449 61.2575 144.669 61.1706 144.898 61.1213C145.262 61.0361 145.633 60.9809 146.006 60.9564C146.462 60.9234 147.061 60.9036 147.785 60.9036C148.097 61.1015 148.404 61.2731 148.697 61.4314C148.99 61.5897 149.153 61.6491 149.205 61.5963C149.164 61.8215 149.077 62.0353 148.949 62.224C148.821 62.4127 148.655 62.572 148.462 62.6915C147.949 63.0847 147.388 63.4106 146.794 63.6613C146.133 63.9353 145.451 64.1559 144.755 64.321C144.161 64.4781 143.551 64.5644 142.937 64.5783C141.8 64.6153 140.665 64.4546 139.581 64.1033C138.823 63.8545 138.137 63.4219 137.581 62.8432C137.109 62.3285 136.777 61.6989 136.617 61.0158C136.447 60.3186 136.361 59.603 136.363 58.8848C136.363 57.9876 136.395 57.1365 136.473 56.3316C136.473 55.9886 136.519 55.6323 136.545 55.2562C136.571 54.8802 136.578 54.5437 136.578 54.2534C136.596 53.4395 136.53 52.6258 136.382 51.8256C136.296 51.3416 136.089 50.8877 135.783 50.5061C135.512 50.2124 135.152 50.0196 134.76 49.9585C134.292 49.8826 133.819 49.8473 133.346 49.853L127.312 50.1763V58.2383C127.312 58.4626 127.045 58.6341 126.511 58.7726C125.82 58.921 125.113 58.9874 124.407 58.9706C123.663 59.0071 122.917 58.9405 122.191 58.7726C121.8 58.6341 121.611 58.4626 121.611 58.2383V0.78169Z" fill="#0B1547"/>
<path d="M152.335 48.4843C152.34 49.8255 152.538 51.1589 152.922 52.4427C153.233 53.5205 153.742 54.5297 154.42 55.4181C155.047 56.2242 155.85 56.8723 156.766 57.3116C157.713 57.7617 158.749 57.9873 159.795 57.9713C160.446 57.9712 161.091 57.8597 161.705 57.6414C162.311 57.4267 162.896 57.1527 163.451 56.8233C163.977 56.5043 164.486 56.1563 164.975 55.781C165.445 55.4181 165.868 55.1212 166.226 54.7979L166.63 54.4681C166.768 54.3587 166.922 54.2719 167.086 54.2108C167.297 54.1293 167.515 54.0696 167.738 54.0327C168.106 53.9731 168.479 53.9466 168.852 53.9535C169.49 53.9457 170.127 54.0009 170.755 54.1184C171.276 54.2306 171.563 54.3559 171.608 54.5011C171.563 54.4285 171.432 54.5011 171.23 54.6858L170.52 55.3455C169.854 56.0204 169.118 56.6199 168.324 57.1334C167.542 57.6317 166.707 58.041 165.835 58.3539C164.892 58.6947 163.916 58.9335 162.923 59.0665C161.78 59.2184 160.629 59.2911 159.476 59.2842C157.642 59.313 155.814 59.048 154.062 58.4991C152.564 58.0356 151.172 57.2729 149.97 56.256C148.848 55.3081 147.956 54.1117 147.364 52.7594C146.759 51.3302 146.457 49.7883 146.478 48.2336C146.464 46.7121 146.798 45.2082 147.455 43.8397C148.106 42.4924 149.034 41.3022 150.178 40.3497C151.443 39.3433 152.882 38.5828 154.42 38.1066C156.115 37.5444 157.889 37.2659 159.672 37.2819C162.853 37.2835 165.945 38.3479 168.468 40.3101C169.593 41.1917 170.534 42.2904 171.237 43.5428C171.904 44.7527 172.254 46.1155 172.253 47.5012C172.253 48.1346 171.187 48.4513 169.054 48.4513L152.335 48.4843ZM166.585 47.1648C166.451 46.0022 166.169 44.8622 165.744 43.7737C165.369 42.7941 164.846 41.8794 164.194 41.0622C163.609 40.322 162.879 39.7131 162.05 39.2743C161.248 38.8401 160.353 38.6135 159.444 38.6146C158.555 38.6115 157.68 38.8387 156.903 39.2743C156.08 39.7292 155.352 40.3408 154.759 41.0754C154.1 41.8888 153.566 42.7986 153.176 43.7737C152.746 44.8432 152.459 45.9658 152.322 47.112L166.585 47.1648Z" fill="#0B1547"/>
<path d="M190.53 58.189C188.722 58.9503 186.78 59.334 184.822 59.3171C183.168 59.3814 181.52 59.0774 179.994 58.4265C178.852 57.9086 177.862 57.0993 177.121 56.0778C176.433 55.0929 175.968 53.9667 175.759 52.7791C175.528 51.5348 175.413 50.2715 175.414 49.0054V38.1264C175.414 37.902 175.694 37.7239 176.248 37.5788C176.939 37.4134 177.648 37.338 178.359 37.3545C178.844 37.3492 179.329 37.369 179.812 37.4138C180.095 37.4327 180.376 37.4881 180.646 37.5788C180.795 37.6224 180.929 37.7096 181.03 37.8295C181.087 37.9182 181.118 38.0208 181.121 38.1264V49.1044C181.121 50.127 181.16 51.1628 181.245 52.225C181.315 53.2028 181.492 54.1697 181.773 55.108C181.995 55.8911 182.38 56.6174 182.9 57.239C183.142 57.5196 183.443 57.7409 183.782 57.8861C184.121 58.0312 184.487 58.0965 184.855 58.0768C185.382 58.0689 185.906 58.0026 186.418 57.8789C187.002 57.7459 187.571 57.549 188.113 57.2917C188.645 57.0465 189.144 56.7339 189.598 56.3615C190.024 56.0299 190.357 55.5908 190.562 55.0882V38.1264C190.562 37.9284 190.849 37.7503 191.416 37.592C192.087 37.4212 192.777 37.3414 193.468 37.3545C194.226 37.3152 194.985 37.384 195.723 37.559C196.088 37.6909 196.27 37.8823 196.27 38.1264V52.8649L197.176 52.6802C197.488 52.8715 197.827 53.0562 198.121 53.2278C198.347 53.3634 198.593 53.4614 198.85 53.518L198.27 53.8479C197.986 54.0055 197.711 54.1818 197.449 54.3757C197.181 54.5783 196.926 54.7987 196.687 55.0354C196.5 55.1883 196.356 55.3886 196.27 55.616V67.4385C196.299 68.2424 196.125 69.0405 195.766 69.7582C195.407 70.4758 194.875 71.0896 194.218 71.5421C192.849 72.5251 190.96 73.0199 188.562 73.0199C187.87 73.0292 187.178 72.9917 186.49 72.9077C185.982 72.8352 185.728 72.6768 185.728 72.4393C185.729 72.3425 185.761 72.2488 185.82 72.1725C185.879 72.0963 185.961 72.0416 186.054 72.0171C186.325 71.9211 186.608 71.859 186.894 71.8324C187.263 71.8023 187.633 71.8023 188.002 71.8324L189.148 71.9049H189.181C189.494 71.9049 189.748 71.7004 189.943 71.298C190.16 70.8199 190.301 70.3099 190.36 69.7872C190.45 69.1308 190.507 68.4702 190.53 67.808C190.53 67.0757 190.562 66.3829 190.562 65.7298L190.53 58.189ZM199 53.4455C198.99 53.4571 198.978 53.4666 198.965 53.4734C198.952 53.4802 198.937 53.4842 198.922 53.4851H198.87C198.853 53.4917 198.834 53.4917 198.818 53.4851C198.935 53.5708 199 53.5444 199 53.4389V53.4455Z" fill="#0B1547"/>
</svg>
