<svg width="58" height="40" viewBox="0 0 58 40" fill="none" xmlns="http://www.w3.org/2000/svg">
<rect x="0.5" y="0.5" width="57" height="39" rx="3.5" fill="white" stroke="#F3F3F3"/>
<path d="M34.3103 28.9765H23.9592V10.5122H34.3103V28.9765Z" fill="#6C6BBD"/>
<path d="M24.6223 19.7429C24.6223 15.9973 26.3891 12.6608 29.1406 10.5107C27.1285 8.93843 24.5892 7.99998 21.8294 7.99998C15.2961 7.99998 10 13.2574 10 19.7429C10 26.2283 15.2961 31.4857 21.8294 31.4857C24.5892 31.4857 27.1285 30.5473 29.1406 28.975C26.3891 26.8249 24.6223 23.4884 24.6223 19.7429Z" fill="#EB001B"/>
<path d="M48.2707 19.7429C48.2707 26.2283 42.9747 31.4857 36.4413 31.4857C33.6815 31.4857 31.1422 30.5473 29.1294 28.975C31.8816 26.8249 33.6485 23.4884 33.6485 19.7429C33.6485 15.9973 31.8816 12.6608 29.1294 10.5107C31.1422 8.93843 33.6815 7.99998 36.4413 7.99998C42.9747 7.99998 48.2707 13.2574 48.2707 19.7429Z" fill="#0099DF"/>
</svg>
