<svg width="18" height="18" viewBox="0 0 18 18" fill="none" xmlns="http://www.w3.org/2000/svg">
<path d="M9 8.25C9.82843 8.25 10.5 7.57843 10.5 6.75C10.5 5.92157 9.82843 5.25 9 5.25C8.17157 5.25 7.5 5.92157 7.5 6.75C7.5 7.57843 8.17157 8.25 9 8.25Z" stroke="#0B1547" stroke-width="1.2" stroke-linecap="round" stroke-linejoin="round"/>
<path d="M9 15.75C9 15.75 14.25 12.1154 14.25 7.44231C14.25 6.06522 13.6969 4.74454 12.7123 3.77079C11.7277 2.79705 10.3924 2.25 9 2.25C7.60761 2.25 6.27226 2.79705 5.28769 3.77079C4.30312 4.74454 3.75 6.06522 3.75 7.44231C3.75 12.1154 9 15.75 9 15.75Z" stroke="#0B1547" stroke-width="1.2" stroke-linecap="round" stroke-linejoin="round"/>
</svg>
