<svg width="58" height="40" viewBox="0 0 58 40" fill="none" xmlns="http://www.w3.org/2000/svg">
<rect x="0.5" y="0.5" width="57" height="39" rx="3.5" fill="white" stroke="#F3F3F3"/>
<path d="M34.3103 28.9765H23.9592V10.5122H34.3103V28.9765Z" fill="#FF5F00"/>
<path d="M24.6223 19.743C24.6223 15.9974 26.3891 12.661 29.1406 10.5108C27.1285 8.93855 24.5892 8.0001 21.8294 8.0001C15.2961 8.0001 10 13.2575 10 19.743C10 26.2285 15.2961 31.4858 21.8294 31.4858C24.5892 31.4858 27.1285 30.5474 29.1406 28.9751C26.3891 26.825 24.6223 23.4885 24.6223 19.743Z" fill="#EB001B"/>
<path d="M48.2707 19.743C48.2707 26.2285 42.9747 31.4858 36.4413 31.4858C33.6815 31.4858 31.1422 30.5474 29.1294 28.9751C31.8816 26.825 33.6485 23.4885 33.6485 19.743C33.6485 15.9974 31.8816 12.661 29.1294 10.5108C31.1422 8.93855 33.6815 8.0001 36.4413 8.0001C42.9747 8.0001 48.2707 13.2575 48.2707 19.743Z" fill="#F79E1B"/>
</svg>
