<svg width="32" height="32" viewBox="0 0 32 32" fill="none" xmlns="http://www.w3.org/2000/svg">
<rect width="32" height="32" rx="16" fill="#AA767C"/>
<path d="M21.3193 18.0769C21.768 17.6555 21.8321 17.0535 21.4475 16.4515C21.127 15.9699 20.5501 15.7291 19.9091 15.8495C19.6527 15.9097 19.3963 16.0301 19.1399 16.2107C17.1529 17.4749 14.4608 17.4147 12.4738 16.1505C12.3456 16.0903 12.2174 16.0301 12.0892 15.9699C11.3841 15.6689 10.679 15.7893 10.2945 16.3913C9.84577 16.9933 9.90986 17.6555 10.4867 18.1973C10.6149 18.3177 10.7431 18.3779 10.8072 18.4983L10.8713 18.5585C11.7687 19.2207 12.8584 19.6421 14.2685 19.8227L13.4352 20.6054C12.7302 21.2676 11.961 21.99 11.2559 22.6522C11.0636 22.8328 10.8072 23.1338 10.8072 23.5552C10.8072 24.097 11.1277 24.6388 11.7046 24.8796C11.8969 25 12.0892 25 12.2815 25C12.602 25 12.9866 24.8796 13.2429 24.5786C14.2044 23.6756 14.9736 22.9532 15.7428 22.2308C15.8069 22.1706 15.8069 22.1706 15.8069 22.1706C15.8069 22.1706 15.871 22.1706 15.871 22.2308C16.3837 22.7726 16.9606 23.2542 17.4734 23.796C17.7298 24.0368 17.9862 24.2776 18.2426 24.5184C18.5631 24.8194 18.8195 24.9398 19.204 24.9398C19.7809 25 20.4219 24.6388 20.6783 24.097C20.9347 23.6154 20.8065 23.0134 20.3578 22.6522C19.7168 22.0502 19.0759 21.388 18.3708 20.786L17.2811 19.7625C17.858 19.7023 18.499 19.5819 19.0759 19.3411C20.0373 19.0401 20.7424 18.6187 21.3193 18.0769Z" fill="white"/>
<path d="M15.8069 16.3913C18.5631 16.3913 20.8065 14.3445 20.8065 11.7558C20.8065 10.4916 20.2937 9.28763 19.3322 8.38462C18.3708 7.48161 17.1529 7 15.871 7C13.1148 7 10.9354 9.10702 10.8713 11.6354C10.8713 12.8997 11.3841 14.0435 12.3456 14.9465C13.243 15.9097 14.4608 16.3913 15.8069 16.3913ZM14.3967 10.3712C14.7813 10.01 15.2941 9.82943 15.8069 9.82943C16.9606 9.82943 17.7939 10.6722 17.7939 11.6957C17.7939 12.7793 16.8965 13.5619 15.8069 13.5619C14.6531 13.5619 13.8198 12.7191 13.8198 11.6957C13.8198 11.214 14.0121 10.7324 14.3967 10.3712Z" fill="white"/>
<path d="M21.3193 18.0769C21.768 17.6555 21.8321 17.0535 21.4475 16.4515C21.127 15.9699 20.5501 15.7291 19.9091 15.8495C19.6527 15.9097 19.3963 16.0301 19.1399 16.2107C17.1529 17.4749 14.4608 17.4147 12.4738 16.1505C12.3456 16.0903 12.2174 16.0301 12.0892 15.9699C11.3841 15.6689 10.679 15.7893 10.2945 16.3913C9.84577 16.9933 9.90986 17.6555 10.4867 18.1973C10.6149 18.3177 10.7431 18.3779 10.8072 18.4983L10.8713 18.5585C11.7687 19.2207 12.8584 19.6421 14.2685 19.8227L13.4352 20.6054C12.7302 21.2676 11.961 21.99 11.2559 22.6522C11.0636 22.8328 10.8072 23.1338 10.8072 23.5552C10.8072 24.097 11.1277 24.6388 11.7046 24.8796C11.8969 25 12.0892 25 12.2815 25C12.602 25 12.9866 24.8796 13.2429 24.5786C14.2044 23.6756 14.9736 22.9532 15.7428 22.2308C15.8069 22.1706 15.8069 22.1706 15.8069 22.1706C15.8069 22.1706 15.871 22.1706 15.871 22.2308C16.3837 22.7726 16.9606 23.2542 17.4734 23.796C17.7298 24.0368 17.9862 24.2776 18.2426 24.5184C18.5631 24.8194 18.8195 24.9398 19.204 24.9398C19.7809 25 20.4219 24.6388 20.6783 24.097C20.9347 23.6154 20.8065 23.0134 20.3578 22.6522C19.7168 22.0502 19.0759 21.388 18.3708 20.786L17.2811 19.7625C17.858 19.7023 18.499 19.5819 19.0759 19.3411C20.0373 19.0401 20.7424 18.6187 21.3193 18.0769Z" fill="white"/>
</svg>
