<svg width="142" height="22" viewBox="0 0 142 22" fill="none" xmlns="http://www.w3.org/2000/svg">
<path d="M10.5277 1.35869C10.6834 0.910914 11.3166 0.910914 11.4723 1.35869L13.472 7.11168C13.5407 7.30922 13.725 7.44315 13.9341 7.44741L20.0235 7.57151C20.4974 7.58116 20.6931 8.18344 20.3154 8.46984L15.4619 12.1495C15.2953 12.2758 15.2248 12.4925 15.2854 12.6927L17.0491 18.5224C17.1864 18.9761 16.6741 19.3484 16.2849 19.0776L11.2856 15.5987C11.1139 15.4793 10.8861 15.4793 10.7144 15.5987L5.71507 19.0776C5.32595 19.3484 4.81362 18.9761 4.9509 18.5224L6.7146 12.6927C6.77516 12.4925 6.70474 12.2758 6.53809 12.1495L1.68463 8.46984C1.30686 8.18344 1.50255 7.58116 1.97652 7.57151L8.06589 7.44741C8.27497 7.44315 8.45932 7.30922 8.52798 7.11168L10.5277 1.35869Z" fill="#FCC154"/>
<path d="M40.5277 1.35869C40.6834 0.910914 41.3166 0.910914 41.4723 1.35869L43.472 7.11168C43.5407 7.30922 43.725 7.44315 43.9341 7.44741L50.0235 7.57151C50.4974 7.58116 50.6931 8.18344 50.3154 8.46984L45.4619 12.1495C45.2953 12.2758 45.2248 12.4925 45.2854 12.6927L47.0491 18.5224C47.1864 18.9761 46.6741 19.3484 46.2849 19.0776L41.2856 15.5987C41.1139 15.4793 40.8861 15.4793 40.7144 15.5987L35.7151 19.0776C35.3259 19.3484 34.8136 18.9761 34.9509 18.5224L36.7146 12.6927C36.7752 12.4925 36.7047 12.2758 36.5381 12.1495L31.6846 8.46984C31.3069 8.18344 31.5026 7.58116 31.9765 7.57151L38.0659 7.44741C38.275 7.44315 38.4593 7.30922 38.528 7.11168L40.5277 1.35869Z" fill="#FCC154"/>
<path d="M70.5277 1.35869C70.6834 0.910914 71.3166 0.910914 71.4723 1.35869L73.472 7.11168C73.5407 7.30922 73.725 7.44315 73.9341 7.44741L80.0235 7.57151C80.4974 7.58116 80.6931 8.18344 80.3154 8.46984L75.4619 12.1495C75.2953 12.2758 75.2248 12.4925 75.2854 12.6927L77.0491 18.5224C77.1864 18.9761 76.6741 19.3484 76.2849 19.0776L71.2856 15.5987C71.1139 15.4793 70.8861 15.4793 70.7144 15.5987L65.7151 19.0776C65.3259 19.3484 64.8136 18.9761 64.9509 18.5224L66.7146 12.6927C66.7752 12.4925 66.7047 12.2758 66.5381 12.1495L61.6846 8.46984C61.3069 8.18344 61.5026 7.58116 61.9765 7.57151L68.0659 7.44741C68.275 7.44315 68.4593 7.30922 68.528 7.11168L70.5277 1.35869Z" fill="#FCC154"/>
<path d="M100.528 1.35869C100.683 0.910914 101.317 0.910914 101.472 1.35869L103.472 7.11168C103.541 7.30922 103.725 7.44315 103.934 7.44741L110.023 7.57151C110.497 7.58116 110.693 8.18344 110.315 8.46984L105.462 12.1495C105.295 12.2758 105.225 12.4925 105.285 12.6927L107.049 18.5224C107.186 18.9761 106.674 19.3484 106.285 19.0776L101.286 15.5987C101.114 15.4793 100.886 15.4793 100.714 15.5987L95.7151 19.0776C95.3259 19.3484 94.8136 18.9761 94.9509 18.5224L96.7146 12.6927C96.7752 12.4925 96.7047 12.2758 96.5381 12.1495L91.6846 8.46984C91.3069 8.18344 91.5026 7.58116 91.9765 7.57151L98.0659 7.44741C98.275 7.44315 98.4593 7.30922 98.528 7.11168L100.528 1.35869Z" fill="#FCC154"/>
<path d="M130.528 1.35869C130.683 0.910914 131.317 0.910914 131.472 1.35869L133.472 7.11168C133.541 7.30922 133.725 7.44315 133.934 7.44741L140.023 7.57151C140.497 7.58116 140.693 8.18344 140.315 8.46984L135.462 12.1495C135.295 12.2758 135.225 12.4925 135.285 12.6927L137.049 18.5224C137.186 18.9761 136.674 19.3484 136.285 19.0776L131.286 15.5987C131.114 15.4793 130.886 15.4793 130.714 15.5987L125.715 19.0776C125.326 19.3484 124.814 18.9761 124.951 18.5224L126.715 12.6927C126.775 12.4925 126.705 12.2758 126.538 12.1495L121.685 8.46984C121.307 8.18344 121.503 7.58116 121.977 7.57151L128.066 7.44741C128.275 7.44315 128.459 7.30922 128.528 7.11168L130.528 1.35869Z" fill="#D9D9D9"/>
</svg>
