<svg width="24" height="24" viewBox="0 0 24 24" fill="none" xmlns="http://www.w3.org/2000/svg">
<path fill-rule="evenodd" clip-rule="evenodd" d="M3.39383 2.20469C3.70398 1.96829 4.12327 1.93375 4.46793 2.11621L21.4679 11.1162C21.7953 11.2895 22 11.6296 22 12C22 12.3704 21.7953 12.7105 21.4679 12.8838L4.46793 21.8838C4.12327 22.0662 3.70398 22.0317 3.39383 21.7953C3.08368 21.5589 2.93925 21.1637 3.02385 20.7831L4.97564 12L3.02385 3.21693C2.93925 2.83624 3.08368 2.4411 3.39383 2.20469ZM6.80221 13L5.44599 19.103L16.9739 13H6.80221ZM16.9739 11H6.80221L5.44599 4.897L16.9739 11Z" fill="#7D90DC"/>
</svg>
