<svg width="32" height="32" viewBox="0 0 32 32" fill="none" xmlns="http://www.w3.org/2000/svg">
<rect width="32" height="32" rx="16" fill="#AA767C"/>
<path d="M24.4481 17.7695C24.5032 17.3279 24.5584 16.9416 24.5584 16.5C24.5584 12.0844 20.9708 8.44156 16.5 8.44156C16.0584 8.44156 15.6721 8.49675 15.2305 8.55195C14.513 8.16558 13.7403 8 12.9675 8C10.2078 8 8 10.2078 8 12.9675C8 13.7403 8.16558 14.513 8.55195 15.2305C8.49675 15.6721 8.44156 16.0584 8.44156 16.5C8.44156 20.9156 12.0292 24.5584 16.5 24.5584C16.9416 24.5584 17.3279 24.5032 17.7695 24.4481C18.487 24.7792 19.2597 25 20.0325 25C22.7922 25 25 22.7922 25 20.0325C25 19.2597 24.7792 18.487 24.4481 17.7695ZM19.8669 19.4253C19.7013 19.7565 19.4805 20.0325 19.1494 20.2532C18.8182 20.474 18.487 20.6396 18.0455 20.75C17.6039 20.8604 17.1071 20.9156 16.5552 20.9156C15.3961 20.9156 14.4578 20.6396 13.7955 20.1429C13.4091 19.8117 13.0779 19.4253 12.9123 18.9286C12.6916 18.487 13.0779 17.9351 13.6299 17.9351H13.7955C14.1266 17.9351 14.4578 18.1558 14.5682 18.4318C14.6786 18.7078 14.8442 18.9286 15.0649 19.0942C15.3961 19.3701 15.8929 19.4805 16.5 19.4805C17.0519 19.4805 17.4935 19.3701 17.8247 19.2045C18.1558 19.039 18.3214 18.7078 18.3214 18.3766C18.3214 18.211 18.2662 18.1006 18.211 17.9903C18.1558 17.8799 17.9903 17.7695 17.8799 17.7143C17.7143 17.6039 17.5487 17.5487 17.2727 17.4935C17.0519 17.4383 16.776 17.3279 16.4448 17.2727L16.1136 17.1623C15.7273 17.0519 15.2857 16.9416 14.9545 16.8312C14.5682 16.7208 14.237 16.5552 13.961 16.3896C13.6851 16.224 13.4643 16.0032 13.2987 15.6721C13.1331 15.3961 13.0779 15.0097 13.0779 14.5682C13.0779 14.1266 13.1883 13.7403 13.3539 13.4091C13.5195 13.0779 13.7955 12.8019 14.0714 12.6364C14.4026 12.4156 14.7338 12.25 15.1753 12.1948C15.5617 12.0844 16.0032 12.0292 16.5 12.0292C17.0519 12.0292 17.4935 12.0844 17.9351 12.1948C18.3766 12.3052 18.7078 12.4708 19.039 12.7468C19.3701 12.9675 19.5909 13.2435 19.7565 13.6299C20.0325 14.1266 19.6461 14.789 19.039 14.789H18.8734C18.5422 14.789 18.2662 14.6234 18.1006 14.3474C17.9903 14.1818 17.8799 14.0162 17.7143 13.8506C17.4383 13.6299 16.9968 13.5195 16.5 13.5195C16.0032 13.5195 15.6169 13.6299 15.3409 13.7955C15.0649 13.961 14.9545 14.237 14.9545 14.513C14.9545 14.6786 15.0097 14.789 15.0649 14.8994C15.1201 15.0097 15.2305 15.1201 15.3961 15.1753C15.5617 15.2305 15.7273 15.3409 15.9481 15.3961C16.1688 15.4513 16.4448 15.5065 16.776 15.6169C17.1071 15.6721 17.3831 15.7825 17.7143 15.8377C17.9903 15.8929 18.2662 16.0032 18.5422 16.0584C18.8182 16.1688 19.039 16.2792 19.2597 16.3896C19.4805 16.5 19.6461 16.6656 19.8117 16.8312C19.9773 16.9968 20.0877 17.2175 20.1429 17.4383C20.2532 17.6591 20.2532 17.9903 20.2532 18.3214C20.1429 18.7078 20.0325 19.0942 19.8669 19.4253Z" fill="white"/>
</svg>
