<svg width="58" height="40" viewBox="0 0 58 40" fill="none" xmlns="http://www.w3.org/2000/svg">
<rect x="0.5" y="0.5" width="57" height="39" rx="3.5" fill="white" stroke="#F3F3F3"/>
<path d="M25.7516 27.4332H21.8901L24.3054 13.4325H28.1667L25.7516 27.4332Z" fill="#15195A"/>
<path d="M39.7499 13.7748C38.9882 13.4915 37.7802 13.1787 36.2865 13.1787C32.4731 13.1787 29.7878 15.0851 29.7713 17.8106C29.7396 19.8215 31.6939 20.9384 33.1556 21.6089C34.6495 22.2941 35.1574 22.7413 35.1574 23.352C35.1422 24.29 33.9502 24.7223 32.8384 24.7223C31.2967 24.7223 30.4707 24.4994 29.2153 23.9776L28.7069 23.7539L28.1665 26.8967C29.0722 27.2835 30.7408 27.6268 32.4731 27.6419C36.5249 27.6419 39.1627 25.765 39.1939 22.8605C39.2093 21.2667 38.1774 20.0454 35.9526 19.0475C34.602 18.4069 33.7749 17.9749 33.7749 17.3195C33.7908 16.7236 34.4745 16.1133 35.9991 16.1133C37.2544 16.0834 38.1768 16.3663 38.8755 16.6494L39.2247 16.7981L39.7499 13.7748Z" fill="#15195A"/>
<path fill-rule="evenodd" clip-rule="evenodd" d="M46.6617 13.4325H49.6486L52.7638 27.433H49.1885C49.1885 27.433 48.8386 25.8244 48.7277 25.3328H43.7699C43.6265 25.705 42.9595 27.433 42.9595 27.433H38.9077L44.6435 14.5941C45.0409 13.6855 45.7406 13.4325 46.6617 13.4325ZM46.4237 18.556C46.4237 18.556 45.2001 21.6689 44.8821 22.4732H48.0917C47.9329 21.7733 47.2017 18.4219 47.2017 18.4219L46.9318 17.2156C46.8182 17.5262 46.6538 17.9533 46.543 18.2414C46.4678 18.4366 46.4173 18.568 46.4237 18.556Z" fill="#15195A"/>
<path fill-rule="evenodd" clip-rule="evenodd" d="M5.15877 13.4325H11.3715C12.2136 13.462 12.8969 13.7152 13.1193 14.6094L14.4695 21.0422C14.4696 21.0426 14.4698 21.043 14.4699 21.0434L14.8831 22.9796L18.6648 13.4325H22.748L16.6784 27.4184H12.595L9.15324 15.253C7.96575 14.6021 6.61048 14.0786 5.09521 13.7154L5.15877 13.4325Z" fill="#15195A"/>
</svg>
