<svg width="32" height="34" viewBox="0 0 32 34" fill="none" xmlns="http://www.w3.org/2000/svg">
<rect width="32" height="33.0323" rx="16" fill="#AA767C"/>
<path d="M16.8039 21.9998C10.654 21.9998 7.14616 17.8706 7 10.9998H10.0806C10.1818 16.0428 12.4528 18.1789 14.2517 18.6194V10.9998H17.1524V15.3491C18.9288 15.1619 20.7951 13.1799 21.4247 10.9998H24.3254C24.0882 12.1305 23.6152 13.2011 22.9362 14.1446C22.2572 15.0881 21.3867 15.8843 20.3791 16.4832C21.5038 17.0305 22.4972 17.8052 23.2937 18.7561C24.0902 19.707 24.6718 20.8126 25 21.9998H21.807C21.5124 20.9686 20.9135 20.0455 20.0855 19.3463C19.2575 18.647 18.2372 18.2026 17.1524 18.0688V21.9998H16.8039Z" fill="white"/>
</svg>
