<svg width="94" height="16" viewBox="0 0 94 16" fill="none" xmlns="http://www.w3.org/2000/svg">
<rect width="94" height="16" fill="#0B1547"/>
<path d="M8.38 12H6.568V4.944H4.24V3.432H10.708V4.944H8.38V12ZM16.9935 8.712C16.9935 9.256 16.9175 9.74 16.7655 10.164C16.6215 10.588 16.4095 10.948 16.1295 11.244C15.8575 11.532 15.5255 11.752 15.1335 11.904C14.7415 12.048 14.2975 12.12 13.8015 12.12C13.3455 12.12 12.9215 12.048 12.5295 11.904C12.1455 11.752 11.8135 11.532 11.5335 11.244C11.2535 10.948 11.0335 10.588 10.8735 10.164C10.7215 9.74 10.6455 9.256 10.6455 8.712C10.6455 7.984 10.7735 7.372 11.0295 6.876C11.2855 6.372 11.6535 5.988 12.1335 5.724C12.6135 5.46 13.1815 5.328 13.8375 5.328C14.4535 5.328 14.9975 5.46 15.4695 5.724C15.9415 5.988 16.3135 6.372 16.5855 6.876C16.8575 7.372 16.9935 7.984 16.9935 8.712ZM12.4695 8.712C12.4695 9.144 12.5135 9.508 12.6015 9.804C12.6975 10.092 12.8455 10.312 13.0455 10.464C13.2455 10.608 13.5055 10.68 13.8255 10.68C14.1455 10.68 14.4015 10.608 14.5935 10.464C14.7935 10.312 14.9375 10.092 15.0255 9.804C15.1215 9.508 15.1695 9.144 15.1695 8.712C15.1695 8.28 15.1215 7.92 15.0255 7.632C14.9375 7.344 14.7935 7.128 14.5935 6.984C14.3935 6.84 14.1335 6.768 13.8135 6.768C13.3415 6.768 12.9975 6.932 12.7815 7.26C12.5735 7.58 12.4695 8.064 12.4695 8.712ZM24.2792 7.164C24.2792 7.516 24.1672 7.816 23.9432 8.064C23.7272 8.312 23.4032 8.472 22.9712 8.544V8.592C23.4272 8.648 23.7912 8.804 24.0632 9.06C24.3432 9.316 24.4832 9.644 24.4832 10.044C24.4832 10.324 24.4272 10.584 24.3152 10.824C24.2112 11.064 24.0432 11.272 23.8112 11.448C23.5792 11.624 23.2792 11.76 22.9112 11.856C22.5512 11.952 22.1112 12 21.5912 12H18.4712V5.448H21.5912C22.1032 5.448 22.5592 5.504 22.9592 5.616C23.3672 5.72 23.6872 5.896 23.9192 6.144C24.1592 6.392 24.2792 6.732 24.2792 7.164ZM22.6352 9.948C22.6352 9.692 22.5352 9.508 22.3352 9.396C22.1352 9.276 21.8352 9.216 21.4352 9.216H20.2592V10.764H21.4712C21.8072 10.764 22.0832 10.704 22.2992 10.584C22.5232 10.456 22.6352 10.244 22.6352 9.948ZM22.4672 7.308C22.4672 7.1 22.3872 6.948 22.2272 6.852C22.0672 6.756 21.8312 6.708 21.5192 6.708H20.2592V8.004H21.3152C21.6912 8.004 21.9752 7.952 22.1672 7.848C22.3672 7.736 22.4672 7.556 22.4672 7.308ZM28.706 5.316C29.586 5.316 30.258 5.508 30.722 5.892C31.194 6.268 31.43 6.848 31.43 7.632V12H30.182L29.834 11.112H29.786C29.602 11.344 29.41 11.536 29.21 11.688C29.018 11.84 28.794 11.948 28.538 12.012C28.29 12.084 27.982 12.12 27.614 12.12C27.23 12.12 26.882 12.048 26.57 11.904C26.266 11.752 26.026 11.524 25.85 11.22C25.674 10.908 25.586 10.516 25.586 10.044C25.586 9.348 25.83 8.836 26.318 8.508C26.806 8.172 27.538 7.988 28.514 7.956L29.654 7.92V7.632C29.654 7.288 29.562 7.036 29.378 6.876C29.202 6.716 28.954 6.636 28.634 6.636C28.314 6.636 28.002 6.684 27.698 6.78C27.394 6.868 27.09 6.98 26.786 7.116L26.198 5.904C26.55 5.72 26.938 5.576 27.362 5.472C27.794 5.368 28.242 5.316 28.706 5.316ZM28.958 8.988C28.382 9.004 27.982 9.108 27.758 9.3C27.534 9.492 27.422 9.744 27.422 10.056C27.422 10.328 27.502 10.524 27.662 10.644C27.822 10.756 28.03 10.812 28.286 10.812C28.67 10.812 28.994 10.7 29.258 10.476C29.522 10.244 29.654 9.92 29.654 9.504V8.964L28.958 8.988ZM36.9082 5.328C37.6442 5.328 38.2402 5.616 38.6962 6.192C39.1522 6.76 39.3802 7.6 39.3802 8.712C39.3802 9.456 39.2722 10.084 39.0562 10.596C38.8402 11.1 38.5442 11.48 38.1682 11.736C37.7922 11.992 37.3562 12.12 36.8602 12.12C36.5482 12.12 36.2762 12.08 36.0442 12C35.8202 11.92 35.6282 11.816 35.4682 11.688C35.3082 11.56 35.1682 11.424 35.0482 11.28H34.9522C34.9842 11.432 35.0082 11.592 35.0242 11.76C35.0402 11.92 35.0482 12.08 35.0482 12.24V14.88H33.2602V5.448H34.7122L34.9642 6.3H35.0482C35.1682 6.124 35.3122 5.964 35.4802 5.82C35.6482 5.668 35.8482 5.548 36.0802 5.46C36.3202 5.372 36.5962 5.328 36.9082 5.328ZM36.3322 6.756C36.0202 6.756 35.7722 6.82 35.5882 6.948C35.4042 7.076 35.2682 7.272 35.1802 7.536C35.1002 7.792 35.0562 8.116 35.0482 8.508V8.7C35.0482 9.124 35.0882 9.484 35.1682 9.78C35.2482 10.068 35.3842 10.288 35.5762 10.44C35.7682 10.592 36.0282 10.668 36.3562 10.668C36.6282 10.668 36.8522 10.592 37.0282 10.44C37.2042 10.288 37.3362 10.064 37.4242 9.768C37.5122 9.472 37.5562 9.112 37.5562 8.688C37.5562 8.048 37.4562 7.568 37.2562 7.248C37.0642 6.92 36.7562 6.756 36.3322 6.756ZM45.6303 5.448V7.968H48.1263V5.448H49.9143V12H48.1263V9.3H45.6303V12H43.8423V5.448H45.6303ZM54.4876 5.328C55.0956 5.328 55.6156 5.444 56.0476 5.676C56.4876 5.908 56.8276 6.244 57.0676 6.684C57.3076 7.124 57.4276 7.664 57.4276 8.304V9.168H53.2036C53.2196 9.672 53.3676 10.068 53.6476 10.356C53.9356 10.644 54.3316 10.788 54.8356 10.788C55.2596 10.788 55.6436 10.748 55.9876 10.668C56.3316 10.58 56.6876 10.448 57.0556 10.272V11.652C56.7356 11.812 56.3956 11.928 56.0356 12C55.6836 12.08 55.2556 12.12 54.7516 12.12C54.0956 12.12 53.5156 12 53.0116 11.76C52.5076 11.512 52.1116 11.14 51.8236 10.644C51.5356 10.148 51.3916 9.524 51.3916 8.772C51.3916 8.004 51.5196 7.368 51.7756 6.864C52.0396 6.352 52.4036 5.968 52.8676 5.712C53.3316 5.456 53.8716 5.328 54.4876 5.328ZM54.4996 6.6C54.1556 6.6 53.8676 6.712 53.6356 6.936C53.4116 7.16 53.2796 7.508 53.2396 7.98H55.7476C55.7476 7.716 55.6996 7.48 55.6036 7.272C55.5156 7.064 55.3796 6.9 55.1956 6.78C55.0116 6.66 54.7796 6.6 54.4996 6.6ZM64.7694 5.448V10.692H65.7294V14.352H64.1214V12H59.7174V14.352H58.1094V10.692H58.6614C58.9494 10.252 59.1934 9.752 59.3934 9.192C59.5934 8.624 59.7534 8.02 59.8734 7.38C59.9934 6.74 60.0814 6.096 60.1374 5.448H64.7694ZM61.6374 6.792C61.5734 7.272 61.4934 7.74 61.3974 8.196C61.3014 8.644 61.1814 9.076 61.0374 9.492C60.9014 9.908 60.7334 10.308 60.5334 10.692H62.9814V6.792H61.6374ZM69.5462 5.328C70.1542 5.328 70.6742 5.444 71.1062 5.676C71.5462 5.908 71.8862 6.244 72.1262 6.684C72.3662 7.124 72.4862 7.664 72.4862 8.304V9.168H68.2622C68.2782 9.672 68.4262 10.068 68.7062 10.356C68.9942 10.644 69.3902 10.788 69.8942 10.788C70.3182 10.788 70.7022 10.748 71.0462 10.668C71.3902 10.58 71.7462 10.448 72.1142 10.272V11.652C71.7942 11.812 71.4542 11.928 71.0942 12C70.7422 12.08 70.3142 12.12 69.8102 12.12C69.1542 12.12 68.5742 12 68.0702 11.76C67.5662 11.512 67.1702 11.14 66.8822 10.644C66.5942 10.148 66.4502 9.524 66.4502 8.772C66.4502 8.004 66.5782 7.368 66.8342 6.864C67.0982 6.352 67.4622 5.968 67.9262 5.712C68.3902 5.456 68.9302 5.328 69.5462 5.328ZM69.5582 6.6C69.2142 6.6 68.9262 6.712 68.6942 6.936C68.4702 7.16 68.3382 7.508 68.2982 7.98H70.8062C70.8062 7.716 70.7582 7.48 70.6622 7.272C70.5742 7.064 70.4382 6.9 70.2542 6.78C70.0702 6.66 69.8382 6.6 69.5582 6.6ZM79.804 12H78.016V6.792H76.372C76.292 7.752 76.192 8.572 76.072 9.252C75.96 9.924 75.816 10.472 75.64 10.896C75.472 11.32 75.256 11.632 74.992 11.832C74.728 12.024 74.404 12.12 74.02 12.12C73.812 12.12 73.624 12.104 73.456 12.072C73.288 12.04 73.136 11.992 73 11.928V10.5C73.088 10.532 73.18 10.56 73.276 10.584C73.372 10.608 73.472 10.62 73.576 10.62C73.688 10.62 73.792 10.576 73.888 10.488C73.992 10.4 74.088 10.244 74.176 10.02C74.272 9.796 74.36 9.488 74.44 9.096C74.52 8.704 74.592 8.212 74.656 7.62C74.728 7.02 74.792 6.296 74.848 5.448H79.804V12ZM83.3984 8.04C83.3984 8.176 83.3904 8.344 83.3744 8.544C83.3664 8.744 83.3544 8.948 83.3384 9.156C83.3304 9.364 83.3184 9.548 83.3024 9.708C83.2864 9.868 83.2744 9.98 83.2664 10.044L86.2904 5.448H88.4384V12H86.7104V9.384C86.7104 9.168 86.7184 8.932 86.7344 8.676C86.7504 8.412 86.7664 8.168 86.7824 7.944C86.8064 7.712 86.8224 7.536 86.8304 7.416L83.8184 12H81.6704V5.448H83.3984V8.04Z" fill="#FEFEFE"/>
</svg>
