<svg width="32" height="32" viewBox="0 0 32 32" fill="none" xmlns="http://www.w3.org/2000/svg">
<rect width="32" height="32" rx="16" fill="#AA767C"/>
<path d="M22.2985 9.69244C20.623 8.02279 18.3891 7.09521 16.031 7.09521C11.1287 7.09521 7.15727 11.0529 7.15727 15.9381C7.15727 17.4841 7.59165 19.0301 8.3363 20.3287L7.09521 24.9047L11.8113 23.668C13.1145 24.3482 14.5417 24.7192 16.031 24.7192C20.9333 24.7192 24.9047 20.7616 24.9047 15.8763C24.8427 13.5883 23.9739 11.3621 22.2985 9.69244ZM20.3127 19.0919C20.1266 19.5866 19.2578 20.0813 18.8234 20.1432C18.4511 20.205 17.9547 20.205 17.4582 20.0813C17.148 19.9577 16.7136 19.834 16.2172 19.5866C13.9832 18.659 12.556 16.4328 12.4319 16.2473C12.3078 16.1237 11.5011 15.0724 11.5011 13.9593C11.5011 12.8462 12.0595 12.3515 12.2457 12.1041C12.4319 11.8568 12.6801 11.8568 12.8662 11.8568C12.9904 11.8568 13.1765 11.8568 13.3006 11.8568C13.4247 11.8568 13.6109 11.795 13.7971 12.2278C13.9832 12.6607 14.4176 13.7738 14.4797 13.8356C14.5417 13.9593 14.5417 14.083 14.4797 14.2067C14.4176 14.3303 14.3555 14.454 14.2314 14.5777C14.1073 14.7014 13.9832 14.8869 13.9212 14.9487C13.7971 15.0724 13.6729 15.1961 13.7971 15.3816C13.9212 15.6289 14.3555 16.3092 15.0381 16.9276C15.9069 17.6696 16.5895 17.917 16.8377 18.0407C17.0859 18.1643 17.21 18.1025 17.3341 17.9788C17.4582 17.8551 17.8926 17.3604 18.0167 17.1131C18.1408 16.8657 18.327 16.9276 18.5132 16.9894C18.6993 17.0512 19.8163 17.6078 20.0025 17.7315C20.2507 17.8551 20.3748 17.917 20.4368 17.9788C20.4989 18.1643 20.4989 18.5972 20.3127 19.0919Z" fill="white"/>
</svg>
