<svg width="32" height="32" viewBox="0 0 32 32" fill="none" xmlns="http://www.w3.org/2000/svg">
<rect width="32" height="32" rx="16" fill="#AA767C"/>
<path fill-rule="evenodd" clip-rule="evenodd" d="M8.85113 21.6455C8.53018 21.5526 8.23735 21.3874 7.99733 21.1639C7.75731 20.9403 7.57715 20.665 7.47205 20.361C6.87148 18.7899 6.69353 12.2295 7.85018 10.9345C8.23514 10.5132 8.77864 10.2538 9.36272 10.2126C12.4657 9.89414 22.0525 9.93661 23.1535 10.3188C23.4632 10.4147 23.7461 10.5762 23.9811 10.7913C24.2161 11.0064 24.397 11.2695 24.5104 11.5608C25.1665 13.1849 25.1888 19.0871 24.4214 20.6476C24.2178 21.0538 23.877 21.3828 23.4538 21.5818C22.2972 22.1338 10.3859 22.1231 8.85113 21.6455ZM13.778 18.567L19.3388 15.807L13.778 13.0257V18.567Z" fill="white"/>
</svg>
